<?xml version="1.0" encoding="utf-8"?>
<!-- Generator: Adobe Illustrator 27.0.1, SVG Export Plug-In . SVG Version: 6.00 Build 0)  -->
<svg version="1.1" id="Layer_1" xmlns="http://www.w3.org/2000/svg" xmlns:xlink="http://www.w3.org/1999/xlink" x="0px" y="0px"
	 viewBox="0 0 100 100" style="enable-background:new 0 0 100 100;" xml:space="preserve">
<style type="text/css">
	.st0{fill:#F2EEF7;}
	.st1{fill:#AB9FC3;stroke:#AB9FC3;stroke-width:2.5;stroke-miterlimit:10;}
</style>
<rect class="st0" width="100" height="100"/>
<path id="checkin" class="st1" d="M31.9,77.7c1.6,0.7,3.2,1,4.9,1c2.3,0,4.6-0.6,6.6-1.9l5.7-3.6c0.3-0.2,0.6-0.4,0.9-0.6
	c0.3,0.2,0.6,0.4,0.9,0.6l5.7,3.6c2,1.3,4.3,1.9,6.6,1.9c1.7,0,3.3-0.4,4.9-1c3.8-1.6,6.5-4.9,7.2-9l5.6-28.8
	c0.5-2.9,0.3-5.8-0.8-8.5c-1.9-4.9-6.1-8.4-11.2-9.5S58.5,22.3,54.8,26L50,30.6l-4.7-4.7c-3.7-3.7-9-5.3-14.1-4.2
	c-5.1,1.2-9.3,4.7-11.2,9.6c-1.1,2.7-1.3,5.7-0.8,8.5l5.6,28.8C25.6,72.6,28.3,76,31.9,77.7z M56.3,27.5c3.1-3.1,7.7-4.5,12-3.6
	c4.4,0.9,8,4,9.6,8.2c0.9,2.3,1.2,4.9,0.6,7.3L73,68.2c-0.6,3.3-2.8,6-5.9,7.4c-3.1,1.3-6.6,1.1-9.4-0.7L52,71.3
	c-0.1,0-0.2-0.1-0.2-0.2l0.1-0.1c0.3-0.3,0.5-0.5,0.9-0.7l0,0c4.2-4,6.9-9.2,7.7-15c0-0.1,0-0.3,0.1-0.4c0-0.1,0-0.2,0-0.3
	c0-0.2,0-0.4,0.1-0.6c0-0.1,0-0.2,0-0.4c0-0.1,0-0.1,0-0.2c0-0.4,0-0.6,0.1-1c0-0.2,0-0.3,0-0.4c0-0.4,0-0.7,0-1c0-0.1,0-0.2,0-0.4
	c0-0.4,0-0.7-0.1-1.1c0-0.1,0-0.2,0-0.2c0-0.4-0.1-0.8-0.2-1.2V48c-0.5-4-2.1-7.7-4.5-11c0-0.1-0.1-0.1-0.1-0.2
	c-0.3-0.3-0.4-0.6-0.7-0.9c-0.1-0.1-0.2-0.3-0.4-0.4c-0.2-0.2-0.4-0.4-0.5-0.6c-0.3-0.4-0.6-0.7-1-1L51.6,32L56.3,27.5z M22.1,32.1
	c1.6-4.2,5.2-7.2,9.6-8.2c0.9-0.2,1.8-0.3,2.8-0.3c3.5,0,6.8,1.3,9.3,3.9l5.5,5.5l0,0l2.7,2.7c0.3,0.3,0.6,0.6,0.9,0.9
	c0.2,0.2,0.4,0.4,0.5,0.6c0.1,0.1,0.2,0.3,0.3,0.4c0.2,0.3,0.4,0.5,0.6,0.8c0,0.1,0.1,0.1,0.1,0.2c0.3,0.4,0.4,0.6,0.7,1l0,0
	c1.5,2.4,2.6,5.1,3.1,7.9l0,0c0.1,0.4,0.2,0.8,0.2,1.2v0.1c0.1,0.4,0.1,0.7,0.1,1.1c0,0.1,0,0.1,0,0.2c0,0.4,0.1,0.6,0.1,1
	c0,0.1,0,0.2,0,0.3c0,0.3,0,0.6,0,0.9c0,0.1,0,0.3,0,0.4c0,0.3,0,0.6,0,0.9c0,0.1,0,0.3,0,0.4c0,0.3-0.1,0.6-0.1,0.9
	c0,0.1,0,0.2,0,0.3c-0.1,0.4-0.1,0.6-0.2,1c0,0.1,0,0.1,0,0.2c-1,5.2-3.8,10-7.8,13.3c0,0,0,0-0.1,0.1c-0.3,0.3-0.6,0.4-0.9,0.7
	c-0.4,0.4-1,0.7-1.5,1l-5.7,3.6c-2.9,1.8-6.3,2.1-9.4,0.7c-3.1-1.3-5.3-4-5.9-7.4l-5.6-28.7C20.9,37,21.2,34.4,22.1,32.1z"/>
</svg>
