<?xml version="1.0" encoding="utf-8"?>
<!-- Generator: Adobe Illustrator 27.0.1, SVG Export Plug-In . SVG Version: 6.00 Build 0)  -->
<svg version="1.1" id="Layer_1" xmlns="http://www.w3.org/2000/svg" xmlns:xlink="http://www.w3.org/1999/xlink" x="0px" y="0px"
	 viewBox="0 0 100 100" style="enable-background:new 0 0 100 100;" xml:space="preserve">
<style type="text/css">
	.st0{fill:#FFFFFF;}
	.st1{fill:url(#SVGID_1_);}
	.st2{fill:url(#SVGID_00000137104856596065714820000009264871681370989982_);}
	.st3{opacity:0.7;fill:url(#SVGID_00000093891899388617335210000018124852985720682928_);}
	.st4{opacity:0.7;fill:url(#SVGID_00000147911062733502150240000014349913743195732635_);}
	.st5{fill:url(#SVGID_00000098907072753218874660000002993548750816970910_);}
	.st6{fill:url(#SVGID_00000178908011442794339180000001925062549706002340_);}
</style>
<rect class="st0" width="100" height="100"/>
<g>
	<g>
		
			<radialGradient id="SVGID_1_" cx="-26.6929" cy="111.5731" r="19.3822" gradientTransform="matrix(2.6032 0 0 2.6032 119.5867 -244.8801)" gradientUnits="userSpaceOnUse">
			<stop  offset="0.1483" style="stop-color:#E70C85"/>
			<stop  offset="0.6488" style="stop-color:#DB0B61"/>
			<stop  offset="0.9306" style="stop-color:#D60B52"/>
		</radialGradient>
		<path class="st1" d="M89.6,27.6c-3.2-7.1-9.1-11.5-16.5-12.5c-2.4-0.3-4.7-0.3-6.9,0c-3,0.5-5.8,1.5-8.3,3.2
			c-2.1,1.4-4,3.2-5.7,5.3c-1,1.3-1.8,2.5-2.4,3.7c-0.9-1.8-2.1-3.7-3.7-5.4c-2.2-2.4-4.8-4.2-7.6-5.4c-3.4-1.4-7.2-1.8-11.4-1.3
			c-0.2,0-0.5,0.1-0.7,0.1c-3.7,0.6-6.9,2-9.7,4.1c-2.5,2-4.5,4.5-6,7.5c-3.6,7.4-3.7,17-0.1,23.5c3.3,6,10.2,13.5,20.5,22.4
			c8.2,7.1,15.7,12.4,16.8,13.3c0.6,0.5,1.4,0.7,2.2,0.6c0,0,0,0,0,0c0.5-0.1,0.9-0.3,1.3-0.6c3.9-2.8,29.5-23.5,37.4-35.2
			c1.9-2.9,3.1-6.8,3.2-11C92.2,35.6,91.4,31.4,89.6,27.6z"/>
		<g>
			
				<radialGradient id="SVGID_00000089541925739885429210000014565617831306652323_" cx="1466.5886" cy="1138.2644" r="26.2287" gradientTransform="matrix(1.4253 3.800000e-03 -3.900000e-03 1.4519 -2036.031 -1607.5325)" gradientUnits="userSpaceOnUse">
				<stop  offset="0.2644" style="stop-color:#E70C85"/>
				<stop  offset="0.4554" style="stop-color:#E40C7D"/>
				<stop  offset="0.7443" style="stop-color:#DE0B69"/>
				<stop  offset="0.9854" style="stop-color:#D60B52"/>
			</radialGradient>
			<path style="fill:url(#SVGID_00000089541925739885429210000014565617831306652323_);" d="M73.2,16.2C56.9,14,50.8,28.9,49.7,33.7
				c-1.1-4.8-6.5-19.3-22.9-17.3C9.9,18.5,6.5,39.1,11.9,49.1C19.6,63.3,46,83,49.4,85.4c0.1,0.1,0.2,0.1,0.3,0
				c3.4-2.4,29.8-24.1,37.7-36.1C93.6,39.8,90.1,18.4,73.2,16.2z"/>
		</g>
	</g>
	
		<linearGradient id="SVGID_00000162324459226713363710000016902119552416595105_" gradientUnits="userSpaceOnUse" x1="1374.5961" y1="560.3354" x2="1371.7333" y2="546.3469" gradientTransform="matrix(0.951 -0.4642 0.4642 0.951 -1502.6561 132.9187)">
		<stop  offset="0" style="stop-color:#FFFFFF;stop-opacity:0"/>
		<stop  offset="1" style="stop-color:#FFFFFF"/>
	</linearGradient>
	<path style="opacity:0.7;fill:url(#SVGID_00000162324459226713363710000016902119552416595105_);" d="M81,24.2
		c2.7,5.5-25.1,19-27.8,13.6c-2.7-5.5,1.4-12.9,9.1-16.7C69.9,17.3,78.3,18.7,81,24.2z"/>
	
		<linearGradient id="SVGID_00000021108842611573631590000008769282764732948145_" gradientUnits="userSpaceOnUse" x1="1345.8711" y1="492.5041" x2="1343.0084" y2="478.5155" gradientTransform="matrix(1.0612 -0.518 0.5907 1.2102 -1693.5779 130.7771)">
		<stop  offset="0" style="stop-color:#FFFFFF;stop-opacity:0"/>
		<stop  offset="1" style="stop-color:#FFFFFF"/>
	</linearGradient>
	<path style="opacity:0.7;fill:url(#SVGID_00000021108842611573631590000008769282764732948145_);" d="M44.1,26.2
		c3.4,7-27.6,22.1-31,15.1c-3.4-7,0.8-16,9.4-20.2C31,17,40.7,19.3,44.1,26.2z"/>
	<g>
		
			<radialGradient id="SVGID_00000021100501621767774140000016562905209521669514_" cx="-180.2396" cy="275.5581" r="31.9434" gradientTransform="matrix(1.1215 0 0 1.1215 229.205 -239.7757)" gradientUnits="userSpaceOnUse">
			<stop  offset="0" style="stop-color:#FFEF26"/>
			<stop  offset="1.783161e-02" style="stop-color:#FFEA21"/>
			<stop  offset="0.102" style="stop-color:#FED70F"/>
			<stop  offset="0.1886" style="stop-color:#FDCC04"/>
			<stop  offset="0.2809" style="stop-color:#FDC800"/>
			<stop  offset="0.6685" style="stop-color:#F18F34"/>
			<stop  offset="0.8876" style="stop-color:#E95F32"/>
			<stop  offset="1" style="stop-color:#E3312D"/>
		</radialGradient>
		<polygon style="fill:url(#SVGID_00000021100501621767774140000016562905209521669514_);" points="27.1,51.7 31.3,65 44.6,69.3 
			31.3,73.5 27.1,86.8 22.8,73.5 9.5,69.3 22.8,65 		"/>
	</g>
	<g>
		
			<radialGradient id="SVGID_00000129203546201777504020000013784507317314502575_" cx="-136.443" cy="243.6826" r="22.409" gradientTransform="matrix(1.1215 0 0 1.1215 229.205 -239.7757)" gradientUnits="userSpaceOnUse">
			<stop  offset="0" style="stop-color:#FFEF26"/>
			<stop  offset="1.783161e-02" style="stop-color:#FFEA21"/>
			<stop  offset="0.102" style="stop-color:#FED70F"/>
			<stop  offset="0.1886" style="stop-color:#FDCC04"/>
			<stop  offset="0.2809" style="stop-color:#FDC800"/>
			<stop  offset="0.6685" style="stop-color:#F18F34"/>
			<stop  offset="0.8876" style="stop-color:#E95F32"/>
			<stop  offset="1" style="stop-color:#E3312D"/>
		</radialGradient>
		<polygon style="fill:url(#SVGID_00000129203546201777504020000013784507317314502575_);" points="76.2,21.2 79.2,30.5 88.5,33.5 
			79.2,36.5 76.2,45.8 73.2,36.5 63.9,33.5 73.2,30.5 		"/>
	</g>
</g>
</svg>
