<?xml version="1.0" encoding="utf-8"?>
<!-- Generator: Adobe Illustrator 27.0.1, SVG Export Plug-In . SVG Version: 6.00 Build 0)  -->
<svg version="1.1" id="Layer_1" xmlns="http://www.w3.org/2000/svg" xmlns:xlink="http://www.w3.org/1999/xlink" x="0px" y="0px"
	 viewBox="0 0 100 100" style="enable-background:new 0 0 100 100;" xml:space="preserve">
<style type="text/css">
	.st0{fill:#F2EEF7;}
	.st1{fill:#AB9FC3;stroke:#AB9FC3;stroke-width:1.1073;stroke-miterlimit:10;}
</style>
<rect class="st0" width="100" height="100"/>
<g id="followup">
	<g>
		<path class="st1" d="M22.3,76.5c-0.5,0-0.9-0.2-1.2-0.5c-0.5-0.5-0.6-1.2-0.4-1.8l4.2-11.7c-2.8-4.7-4.3-10-4.3-15.3
			c0-7.8,3-15.2,8.6-20.8s12.9-8.6,20.8-8.6s15.2,3,20.8,8.6c5.5,5.5,8.6,12.9,8.6,20.8s-3,15.2-8.6,20.8
			c-5.5,5.5-12.9,8.6-20.8,8.6c-5.3,0-10.6-1.5-15.3-4.3l-11.7,4.2C22.7,76.4,22.5,76.5,22.3,76.5z M34.8,68.4c0.3,0,0.7,0.1,1,0.3
			c4.3,2.8,9.2,4.2,14.1,4.2c6.9,0,13.4-2.7,18.3-7.5c4.9-4.9,7.5-11.4,7.5-18.3S73,33.7,68.1,28.8c-4.9-4.9-11.4-7.5-18.3-7.5
			S36.5,24,31.6,28.9C26.7,33.7,24,40.2,24,47.1c0,4.9,1.5,9.8,4.2,14.1c0.3,0.5,0.4,1,0.2,1.5l-3.2,9l9-3.2
			C34.4,68.5,34.6,68.4,34.8,68.4z"/>
	</g>
	<g>
		<g>
			<g>
				<path class="st1" d="M49.3,61.9c-1,0-1.7,0.9-1.7,1.7c0,1,0.9,1.7,1.7,1.7c1,0,1.7-0.9,1.7-1.7C51.1,62.6,50.4,61.9,49.3,61.9
					L49.3,61.9z"/>
			</g>
		</g>
	</g>
	<g>
		<path class="st1" d="M49.2,56.3c-1,0-1.8-0.8-1.8-1.8v-5.2c0-1,0.8-1.8,1.8-1.8c2.3,0,4.4-1,5.8-2.8c1.4-1.8,2-4,1.5-6.2
			c-0.6-2.8-2.8-5-5.6-5.6c-2.3-0.5-4.5,0.1-6.2,1.5c-1.8,1.4-2.8,3.5-2.8,5.8c0,1-0.8,1.8-1.8,1.8c-1,0-1.8-0.8-1.8-1.8
			c0-3.3,1.5-6.4,4.1-8.5c2.6-2.1,5.9-2.9,9.2-2.2c4.1,0.8,7.5,4.2,8.3,8.3c0.7,3.3-0.1,6.6-2.2,9.2c-1.7,2.1-4.1,3.5-6.8,3.9v3.6
			C50.9,55.6,50.1,56.3,49.2,56.3z"/>
	</g>
</g>
</svg>
