<?xml version="1.0" encoding="utf-8"?>
<!-- Generator: Adobe Illustrator 27.0.0, SVG Export Plug-In . SVG Version: 6.00 Build 0)  -->
<svg version="1.1" id="Layer_1" xmlns="http://www.w3.org/2000/svg" xmlns:xlink="http://www.w3.org/1999/xlink" x="0px" y="0px"
	 viewBox="0 0 483 344" style="enable-background:new 0 0 483 344;" xml:space="preserve">
<style type="text/css">
	.st0{fill:#FFFFFF;}
	.st1{fill:#FFE820;}
	.st2{fill:#CD81DD;}
	.st3{fill:#FFBF62;}
	.st4{fill:#FFAE0C;}
	.st5{fill:#FFC139;}
	.st6{fill:#FFB007;}
	.st7{fill:#FF9116;}
	.st8{fill:#FF8403;}
	.st9{fill:#FF69FF;}
	.st10{fill:#FF4F62;}
	.st11{fill:#D38DDB;}
	.st12{fill:#AA47BE;}
	.st13{fill:#8CA2FB;}
	.st14{fill:#7152DA;}
	.st15{fill:#FF9CB1;}
	.st16{fill:#FF7544;}
	.st17{fill:#FF7628;}
	.st18{fill:#FF6C05;}
	.st19{fill:#FF590F;}
	.st20{fill:#D35698;}
	.st21{fill:#FF8FD3;}
	.st22{fill:#CD48B7;}
	.st23{fill:#FF6B51;}
	.st24{fill:#FF3BD3;}
	.st25{fill:#FF2C51;}
	.st26{fill:#D34FB5;}
	.st27{fill:#AA289D;}
	.st28{fill:#FF5792;}
	.st29{fill:#FF4238;}
	.st30{fill:#D3307E;}
	.st31{fill:#AB88FF;}
	.st32{fill:#8945DD;}
	.st33{fill:#AB38FF;}
	.st34{fill:#5E56FB;}
	.st35{fill:#4C2CDA;}
	.st36{fill:#AB4CD3;}
	.st37{fill:#8926B7;}
	.st38{fill:#AB1FD3;}
</style>
<g>
	<path class="st0" d="M127.3,147.8c-23-8.3-39.4-30.3-39.4-56.1c0-5.2,0.7-10.2,1.9-15C53.7,81.9,26,112.9,26,150.4
		c0,41.1,33.3,74.4,74.4,74.4c7.5,0,14.7-1.1,21.4-3.2c-5.1-9.7-8-20.8-8-32.6C113.9,173.6,118.9,159.4,127.3,147.8z"/>
	<path class="st0" d="M322.3,130.2c5.1,9.3,8,20,8.3,31.4c0.9,0,1.7-0.1,2.6-0.1c1.2,0,2.4,0,3.6,0.1c8.1-24.6,31.2-42.4,58.5-42.4
		c8.6,0,16.9,1.8,24.3,5c0-0.6,0-1.2,0-1.8c0-36.5-29-66.3-65.3-67.4c2.4,6.4,3.7,13.4,3.7,20.6C358.1,100,343.4,121,322.3,130.2z"
		/>
	<path class="st0" d="M204.8,200.2c-7-10.7-11-23.5-11-37.2c0-7.9,1.3-15.4,3.8-22.5c-3.4-1.3-6.7-2.8-9.9-4.6
		c-3.9,3.5-8.2,6.5-13,9c0.1,1.8,0.2,3.7,0.2,5.5c0,33.7-22.3,62.1-53,71.3c11.7,22.2,35,37.4,61.9,37.4c7.1,0,14-1.1,20.5-3.1
		c-4.3-8.2-6.7-17.6-6.7-27.5C197.7,218.2,200.3,208.6,204.8,200.2z"/>
	<path class="st0" d="M174.9,150.3c0-1.9-0.1-3.7-0.2-5.5c-8.1,4.2-17.4,6.5-27.1,6.5c-7.1,0-13.9-1.2-20.2-3.5
		C119,159.4,114,173.6,114,189c0,11.8,2.9,22.8,8,32.6C152.6,212.4,174.9,184,174.9,150.3z"/>
	<path class="st0" d="M174.9,150.3c0-1.9-0.1-3.7-0.2-5.5c-8.1,4.2-17.4,6.5-27.1,6.5c-7.1,0-13.9-1.2-20.2-3.5
		C119,159.4,114,173.6,114,189c0,11.8,2.9,22.8,8,32.6C152.6,212.4,174.9,184,174.9,150.3z"/>
	<path class="st0" d="M159.1,104.4c-3.9-8.6-6-18-6-28c0-15.4,5.1-29.7,13.7-41.1c-6-2.1-12.5-3.2-19.2-3.2
		c-27.7,0-51.1,18.9-57.7,44.6c3.5-0.5,7-0.8,10.7-0.8C124.3,75.9,145.4,87,159.1,104.4z"/>
	<path class="st0" d="M168.1,119.1c0.2,0.5,0.5,1,0.7,1.6c0.2,0,0.3-0.1,0.5-0.1C168.9,120.1,168.5,119.6,168.1,119.1z"/>
	<path class="st0" d="M127.3,147.8c9.9-13.5,24.5-23.4,41.5-27.1c-0.2-0.5-0.5-1-0.7-1.6c-3.6-4.5-6.6-9.4-9-14.8
		c-13.6-17.3-34.8-28.5-58.6-28.5c-3.6,0-7.2,0.3-10.7,0.8c-1.2,4.8-1.9,9.8-1.9,15C87.9,117.5,104.4,139.5,127.3,147.8z"/>
	<path class="st0" d="M127.3,147.8c9.9-13.5,24.5-23.4,41.5-27.1c-0.2-0.5-0.5-1-0.7-1.6c-3.6-4.5-6.6-9.4-9-14.8
		c-13.6-17.3-34.8-28.5-58.6-28.5c-3.6,0-7.2,0.3-10.7,0.8c-1.2,4.8-1.9,9.8-1.9,15C87.9,117.5,104.4,139.5,127.3,147.8z"/>
	<path class="st0" d="M169.3,120.6c-0.2,0-0.3,0.1-0.5,0.1c3.2,7.5,5.3,15.6,5.9,24.1c4.7-2.4,9.1-5.4,13-9
		C180.7,131.8,174.5,126.7,169.3,120.6z"/>
	<path class="st0" d="M169.3,120.6c-0.2,0-0.3,0.1-0.5,0.1c3.2,7.5,5.3,15.6,5.9,24.1c4.7-2.4,9.1-5.4,13-9
		C180.7,131.8,174.5,126.7,169.3,120.6z"/>
	<path class="st0" d="M127.3,147.8c6.3,2.3,13.1,3.5,20.2,3.5c9.8,0,19-2.4,27.1-6.5c-0.6-8.5-2.7-16.6-5.9-24.1
		C151.9,124.4,137.2,134.3,127.3,147.8z"/>
	<path class="st0" d="M127.3,147.8c6.3,2.3,13.1,3.5,20.2,3.5c9.8,0,19-2.4,27.1-6.5c-0.6-8.5-2.7-16.6-5.9-24.1
		C151.9,124.4,137.2,134.3,127.3,147.8z"/>
	<path class="st0" d="M127.3,147.8c6.3,2.3,13.1,3.5,20.2,3.5c9.8,0,19-2.4,27.1-6.5c-0.6-8.5-2.7-16.6-5.9-24.1
		C151.9,124.4,137.2,134.3,127.3,147.8z"/>
	<path class="st0" d="M259.1,231.3c-6-0.3-11.8-1.3-17.3-3c-8.9,13-22,22.9-37.4,27.7c9.9,19.1,29.9,32.1,52.9,32.1
		c7,0,13.8-1.2,20.1-3.5C266,271.5,259,254.4,259,235.7C259,234.2,259.1,232.7,259.1,231.3z"/>
	<path class="st0" d="M241.8,228.3c-15.4-4.8-28.4-14.9-37-28.1c-4.5,8.4-7.1,18-7.1,28.3c0,9.9,2.4,19.3,6.7,27.5
		C219.8,251.2,233,241.3,241.8,228.3z"/>
	<path class="st0" d="M241.8,228.3c-15.4-4.8-28.4-14.9-37-28.1c-4.5,8.4-7.1,18-7.1,28.3c0,9.9,2.4,19.3,6.7,27.5
		C219.8,251.2,233,241.3,241.8,228.3z"/>
	<path class="st0" d="M289.9,76.3c0,7.9-1.3,15.4-3.8,22.5c0.9,0.3,1.7,0.7,2.5,1c9.3-26.2,34.2-44.9,63.6-44.9c0.7,0,1.4,0,2.2,0.1
		c-8.4-22.8-30.3-39-56-39c-11.6,0-22.5,3.3-31.7,9.1C280.9,37.6,289.9,55.9,289.9,76.3z"/>
	<path class="st0" d="M288.7,99.8c14.4,6,26.3,16.8,33.7,30.4c21-9.2,35.7-30.2,35.7-54.6c0-7.2-1.3-14.2-3.7-20.6
		c-0.7,0-1.4-0.1-2.2-0.1C322.9,54.9,297.9,73.6,288.7,99.8z"/>
	<path class="st0" d="M288.7,99.8c14.4,6,26.3,16.8,33.7,30.4c21-9.2,35.7-30.2,35.7-54.6c0-7.2-1.3-14.2-3.7-20.6
		c-0.7,0-1.4-0.1-2.2-0.1C322.9,54.9,297.9,73.6,288.7,99.8z"/>
	<path class="st0" d="M419.7,124.2c-0.7,24.9-14.8,46.5-35.5,57.6c14.3,13.5,23.2,32.7,23.2,53.9c0,1.9-0.1,3.7-0.2,5.5
		c28.3-5.5,49.7-30.5,49.7-60.5C456.9,155.4,441.6,133.6,419.7,124.2z"/>
	<path class="st0" d="M336.8,161.6c18.3,0.9,34.9,8.4,47.4,20.2c20.7-11.1,34.8-32.7,35.5-57.6c-7.5-3.2-15.7-5-24.3-5
		C368,119.2,344.8,137,336.8,161.6z"/>
	<path class="st0" d="M336.8,161.6c18.3,0.9,34.9,8.4,47.4,20.2c20.7-11.1,34.8-32.7,35.5-57.6c-7.5-3.2-15.7-5-24.3-5
		C368,119.2,344.8,137,336.8,161.6z"/>
	<path class="st0" d="M207.2,91.7c0,10.6-2.8,20.5-7.6,29.2c2.4,0.6,4.8,1.2,7.1,2c8.8-12.1,21.4-21.3,36.1-25.6
		c-2.6-6.7-4.1-14-4.1-21.7c0-21.3,11.2-40,28-50.5C254.6,14.4,238.8,8,221.4,8c-22.4,0-42.2,10.7-54.7,27.3
		C190.3,43.2,207.2,65.5,207.2,91.7z"/>
	<path class="st0" d="M199.6,120.8c-3.2,5.6-7.2,10.7-11.9,15c3.1,1.8,6.4,3.4,9.9,4.6c2.2-6.3,5.3-12.2,9.2-17.6
		C204.4,122.1,202,121.4,199.6,120.8z"/>
	<path class="st0" d="M199.6,120.8c-3.2,5.6-7.2,10.7-11.9,15c3.1,1.8,6.4,3.4,9.9,4.6c2.2-6.3,5.3-12.2,9.2-17.6
		C204.4,122.1,202,121.4,199.6,120.8z"/>
	<path class="st0" d="M159.1,104.4c3.6,4.5,6.6,9.5,9,14.8c0.4,0.5,0.8,1,1.2,1.4c4.7-1,9.6-1.5,14.6-1.5c5.4,0,10.7,0.6,15.7,1.8
		c4.8-8.6,7.6-18.6,7.6-29.2c0-26.2-16.9-48.5-40.4-56.5c-8.6,11.4-13.7,25.7-13.7,41.1C153.1,86.3,155.2,95.8,159.1,104.4z"/>
	<path class="st0" d="M159.1,104.4c3.6,4.5,6.6,9.5,9,14.8c0.4,0.5,0.8,1,1.2,1.4c4.7-1,9.6-1.5,14.6-1.5c5.4,0,10.7,0.6,15.7,1.8
		c4.8-8.6,7.6-18.6,7.6-29.2c0-26.2-16.9-48.5-40.4-56.5c-8.6,11.4-13.7,25.7-13.7,41.1C153.1,86.3,155.2,95.8,159.1,104.4z"/>
	<path class="st0" d="M168.1,119.1c-2.4-5.3-5.5-10.2-9-14.8C161.5,109.7,164.5,114.6,168.1,119.1z"/>
	<path class="st0" d="M168.1,119.1c-2.4-5.3-5.5-10.2-9-14.8C161.5,109.7,164.5,114.6,168.1,119.1z"/>
	<path class="st0" d="M168.1,119.1c-2.4-5.3-5.5-10.2-9-14.8C161.5,109.7,164.5,114.6,168.1,119.1z"/>
	<path class="st0" d="M199.6,120.8c-5.1-1.2-10.3-1.8-15.7-1.8c-5,0-9.9,0.5-14.6,1.5c5.2,6.1,11.4,11.3,18.4,15.3
		C192.4,131.5,196.4,126.5,199.6,120.8z"/>
	<path class="st0" d="M199.6,120.8c-5.1-1.2-10.3-1.8-15.7-1.8c-5,0-9.9,0.5-14.6,1.5c5.2,6.1,11.4,11.3,18.4,15.3
		C192.4,131.5,196.4,126.5,199.6,120.8z"/>
	<path class="st0" d="M199.6,120.8c-5.1-1.2-10.3-1.8-15.7-1.8c-5,0-9.9,0.5-14.6,1.5c5.2,6.1,11.4,11.3,18.4,15.3
		C192.4,131.5,196.4,126.5,199.6,120.8z"/>
	<path class="st0" d="M238.8,75.6c0,7.7,1.5,15,4.1,21.7c6.1-1.8,12.6-2.8,19.3-2.8c8.4,0,16.5,1.5,23.9,4.3
		c2.4-7,3.8-14.6,3.8-22.5c0-20.4-9-38.7-23.2-51.3C250,35.6,238.8,54.3,238.8,75.6z"/>
	<path class="st0" d="M238.8,75.6c0,7.7,1.5,15,4.1,21.7c6.1-1.8,12.6-2.8,19.3-2.8c8.4,0,16.5,1.5,23.9,4.3
		c2.4-7,3.8-14.6,3.8-22.5c0-20.4-9-38.7-23.2-51.3C250,35.6,238.8,54.3,238.8,75.6z"/>
	<path class="st0" d="M267.7,126.7c-8.6,7.9-19.3,13.6-31.1,16.3c6.5,7.5,11.5,16.3,14.3,26.1c2.1-0.2,4.2-0.3,6.4-0.3
		c11.1,0,21.5,3,30.4,8.3c4.6-3.6,9.6-6.6,14.9-9c-8.6-9.4-14.6-21.1-16.9-34.2C279.3,132.5,273.2,130,267.7,126.7z"/>
	<path class="st0" d="M285.8,133.9c2.2,13.1,8.3,24.9,16.9,34.2c8.6-3.9,18-6.2,27.9-6.5c-0.2-11.3-3.2-22-8.3-31.4
		c-7.3,3.2-15.4,5-23.9,5C294.1,135.2,289.8,134.8,285.8,133.9z"/>
	<path class="st0" d="M285.8,133.9c2.2,13.1,8.3,24.9,16.9,34.2c8.6-3.9,18-6.2,27.9-6.5c-0.2-11.3-3.2-22-8.3-31.4
		c-7.3,3.2-15.4,5-23.9,5C294.1,135.2,289.8,134.8,285.8,133.9z"/>
	<path class="st0" d="M251,169.1c-2.9-9.7-7.8-18.6-14.3-26.1c-4.9,1.1-9.9,1.7-15.1,1.7c-8.4,0-16.5-1.5-23.9-4.3
		c-2.4,7-3.8,14.6-3.8,22.5c0,13.7,4.1,26.5,11,37.2C213.9,183.2,231,171.2,251,169.1z"/>
	<path class="st0" d="M251,169.1c-2.9-9.7-7.8-18.6-14.3-26.1c-4.9,1.1-9.9,1.7-15.1,1.7c-8.4,0-16.5-1.5-23.9-4.3
		c-2.4,7-3.8,14.6-3.8,22.5c0,13.7,4.1,26.5,11,37.2C213.9,183.2,231,171.2,251,169.1z"/>
	<path class="st0" d="M287.7,177.1c-8.9-5.3-19.3-8.3-30.4-8.3c-2.2,0-4.3,0.1-6.4,0.3c1.9,6.3,2.9,13,2.9,19.9
		c0,14.5-4.4,28.1-12,39.2c5.5,1.7,11.3,2.7,17.3,3C260.4,209.3,271.4,189.8,287.7,177.1z"/>
	<path class="st0" d="M287.7,177.1c-8.9-5.3-19.3-8.3-30.4-8.3c-2.2,0-4.3,0.1-6.4,0.3c1.9,6.3,2.9,13,2.9,19.9
		c0,14.5-4.4,28.1-12,39.2c5.5,1.7,11.3,2.7,17.3,3C260.4,209.3,271.4,189.8,287.7,177.1z"/>
	<path class="st0" d="M251,169.1c-20,2.1-37,14.1-46.2,31c8.6,13.2,21.6,23.3,37,28.1c7.6-11.2,12-24.7,12-39.2
		C253.8,182.1,252.8,175.4,251,169.1z"/>
	<path class="st0" d="M251,169.1c-20,2.1-37,14.1-46.2,31c8.6,13.2,21.6,23.3,37,28.1c7.6-11.2,12-24.7,12-39.2
		C253.8,182.1,252.8,175.4,251,169.1z"/>
	<path class="st0" d="M251,169.1c-20,2.1-37,14.1-46.2,31c8.6,13.2,21.6,23.3,37,28.1c7.6-11.2,12-24.7,12-39.2
		C253.8,182.1,252.8,175.4,251,169.1z"/>
	<path class="st0" d="M267.7,126.7c5.5,3.3,11.6,5.7,18,7.1c-0.6-3.7-1-7.6-1-11.5c0-7.9,1.4-15.5,3.9-22.6c-0.8-0.4-1.7-0.7-2.5-1
		C282.4,109.6,276,119.2,267.7,126.7z"/>
	<path class="st0" d="M267.7,126.7c5.5,3.3,11.6,5.7,18,7.1c-0.6-3.7-1-7.6-1-11.5c0-7.9,1.4-15.5,3.9-22.6c-0.8-0.4-1.7-0.7-2.5-1
		C282.4,109.6,276,119.2,267.7,126.7z"/>
	<path class="st0" d="M285.8,133.9c4.1,0.9,8.3,1.4,12.6,1.4c8.5,0,16.6-1.8,23.9-5c-7.4-13.6-19.3-24.4-33.7-30.4
		c-2.5,7.1-3.9,14.7-3.9,22.6C284.8,126.3,285.1,130.1,285.8,133.9z"/>
	<path class="st0" d="M285.8,133.9c4.1,0.9,8.3,1.4,12.6,1.4c8.5,0,16.6-1.8,23.9-5c-7.4-13.6-19.3-24.4-33.7-30.4
		c-2.5,7.1-3.9,14.7-3.9,22.6C284.8,126.3,285.1,130.1,285.8,133.9z"/>
	<path class="st0" d="M285.8,133.9c4.1,0.9,8.3,1.4,12.6,1.4c8.5,0,16.6-1.8,23.9-5c-7.4-13.6-19.3-24.4-33.7-30.4
		c-2.5,7.1-3.9,14.7-3.9,22.6C284.8,126.3,285.1,130.1,285.8,133.9z"/>
	<path class="st0" d="M236.6,143.1c11.8-2.7,22.5-8.4,31.1-16.3c-11.2-6.8-20.1-17.1-24.9-29.5c-14.7,4.3-27.4,13.5-36.1,25.6
		C218.4,126.9,228.7,133.9,236.6,143.1z"/>
	<path class="st0" d="M236.6,143.1c11.8-2.7,22.5-8.4,31.1-16.3c-11.2-6.8-20.1-17.1-24.9-29.5c-14.7,4.3-27.4,13.5-36.1,25.6
		C218.4,126.9,228.7,133.9,236.6,143.1z"/>
	<path class="st0" d="M236.6,143.1c-8-9.1-18.2-16.2-29.9-20.2c-3.9,5.3-7,11.2-9.2,17.6c7.4,2.8,15.5,4.3,23.9,4.3
		C226.7,144.8,231.7,144.2,236.6,143.1z"/>
	<path class="st0" d="M236.6,143.1c-8-9.1-18.2-16.2-29.9-20.2c-3.9,5.3-7,11.2-9.2,17.6c7.4,2.8,15.5,4.3,23.9,4.3
		C226.7,144.8,231.7,144.2,236.6,143.1z"/>
	<path class="st0" d="M236.6,143.1c-8-9.1-18.2-16.2-29.9-20.2c-3.9,5.3-7,11.2-9.2,17.6c7.4,2.8,15.5,4.3,23.9,4.3
		C226.7,144.8,231.7,144.2,236.6,143.1z"/>
	<path class="st0" d="M267.7,126.7c8.2-7.6,14.6-17.1,18.4-27.9c-7.4-2.8-15.5-4.3-23.9-4.3c-6.7,0-13.2,1-19.3,2.8
		C247.7,109.6,256.5,120,267.7,126.7z"/>
	<path class="st0" d="M267.7,126.7c8.2-7.6,14.6-17.1,18.4-27.9c-7.4-2.8-15.5-4.3-23.9-4.3c-6.7,0-13.2,1-19.3,2.8
		C247.7,109.6,256.5,120,267.7,126.7z"/>
	<path class="st0" d="M267.7,126.7c8.2-7.6,14.6-17.1,18.4-27.9c-7.4-2.8-15.5-4.3-23.9-4.3c-6.7,0-13.2,1-19.3,2.8
		C247.7,109.6,256.5,120,267.7,126.7z"/>
	<path class="st0" d="M334.1,187.3c-2.4-0.7-4.8-1.5-7.1-2.4c-2.9,8.7-7.6,16.6-13.5,23.3c2.3,6.3,3.5,13.1,3.5,20.2
		c0,25.9-16.5,47.9-39.6,56.2c0.5,0.5,0.9,1.1,1.4,1.6l0,0c26.1,30.3,66.3,51,104.6,48.6c-21.8-5.6-35.4-16.4-43.2-25.2
		c35.9-3.4,64.3-32.3,67-68.3c-3.8,0.7-7.8,1.2-11.9,1.2C363.5,242.4,337.3,218.3,334.1,187.3z"/>
	<path class="st0" d="M336.8,161.6c-1.2-0.1-2.4-0.1-3.6-0.1c-0.9,0-1.7,0-2.6,0.1c0,0.4,0,0.9,0,1.3c0,7.7-1.3,15.1-3.6,22
		c2.3,0.9,4.7,1.7,7.1,2.4c-0.2-2.1-0.3-4.3-0.3-6.5C333.7,174.1,334.8,167.7,336.8,161.6z"/>
	<path class="st0" d="M336.8,161.6c-1.2-0.1-2.4-0.1-3.6-0.1c-0.9,0-1.7,0-2.6,0.1c0,0.4,0,0.9,0,1.3c0,7.7-1.3,15.1-3.6,22
		c2.3,0.9,4.7,1.7,7.1,2.4c-0.2-2.1-0.3-4.3-0.3-6.5C333.7,174.1,334.8,167.7,336.8,161.6z"/>
	<path class="st0" d="M317,228.4c0-7.1-1.2-13.9-3.5-20.2c-12.5,14.2-30.8,23.1-51.3,23.1c-1,0-2,0-3-0.1c-0.1,1.5-0.1,3-0.1,4.5
		c0,18.7,7,35.8,18.4,48.9C300.5,276.3,317,254.3,317,228.4z"/>
	<path class="st0" d="M317,228.4c0-7.1-1.2-13.9-3.5-20.2c-12.5,14.2-30.8,23.1-51.3,23.1c-1,0-2,0-3-0.1c-0.1,1.5-0.1,3-0.1,4.5
		c0,18.7,7,35.8,18.4,48.9C300.5,276.3,317,254.3,317,228.4z"/>
	<path class="st0" d="M384.2,181.8c-9.5,5.1-20.4,8-31.9,8c-6.3,0-12.4-0.9-18.2-2.5c3.3,31,29.4,55.1,61.3,55.1
		c4.1,0,8-0.4,11.9-1.2c0.1-1.8,0.2-3.7,0.2-5.5C407.4,214.5,398.5,195.3,384.2,181.8z"/>
	<path class="st0" d="M384.2,181.8c-9.5,5.1-20.4,8-31.9,8c-6.3,0-12.4-0.9-18.2-2.5c3.3,31,29.4,55.1,61.3,55.1
		c4.1,0,8-0.4,11.9-1.2c0.1-1.8,0.2-3.7,0.2-5.5C407.4,214.5,398.5,195.3,384.2,181.8z"/>
	<path class="st0" d="M333.7,180.8c0,2.2,0.1,4.4,0.3,6.5c5.8,1.6,11.9,2.5,18.2,2.5c11.6,0,22.4-2.9,31.9-8
		c-12.5-11.8-29.1-19.3-47.4-20.2C334.8,167.7,333.7,174.1,333.7,180.8z"/>
	<path class="st0" d="M333.7,180.8c0,2.2,0.1,4.4,0.3,6.5c5.8,1.6,11.9,2.5,18.2,2.5c11.6,0,22.4-2.9,31.9-8
		c-12.5-11.8-29.1-19.3-47.4-20.2C334.8,167.7,333.7,174.1,333.7,180.8z"/>
	<path class="st0" d="M333.7,180.8c0,2.2,0.1,4.4,0.3,6.5c5.8,1.6,11.9,2.5,18.2,2.5c11.6,0,22.4-2.9,31.9-8
		c-12.5-11.8-29.1-19.3-47.4-20.2C334.8,167.7,333.7,174.1,333.7,180.8z"/>
	<path class="st0" d="M302.6,168.1c-5.3,2.4-10.3,5.4-14.9,9c11.8,7,21,18,25.7,31.1c5.9-6.7,10.6-14.6,13.5-23.3
		C317.7,181.2,309.4,175.4,302.6,168.1z"/>
	<path class="st0" d="M302.6,168.1c-5.3,2.4-10.3,5.4-14.9,9c11.8,7,21,18,25.7,31.1c5.9-6.7,10.6-14.6,13.5-23.3
		C317.7,181.2,309.4,175.4,302.6,168.1z"/>
	<path class="st0" d="M330.6,161.6c-9.9,0.3-19.4,2.6-27.9,6.5c6.7,7.3,15,13.1,24.3,16.8c2.3-6.9,3.6-14.3,3.6-22
		C330.6,162.5,330.6,162,330.6,161.6z"/>
	<path class="st0" d="M330.6,161.6c-9.9,0.3-19.4,2.6-27.9,6.5c6.7,7.3,15,13.1,24.3,16.8c2.3-6.9,3.6-14.3,3.6-22
		C330.6,162.5,330.6,162,330.6,161.6z"/>
	<path class="st0" d="M330.6,161.6c-9.9,0.3-19.4,2.6-27.9,6.5c6.7,7.3,15,13.1,24.3,16.8c2.3-6.9,3.6-14.3,3.6-22
		C330.6,162.5,330.6,162,330.6,161.6z"/>
	<path class="st0" d="M287.7,177.1c-16.4,12.7-27.3,32.1-28.6,54.2c1,0,2,0.1,3,0.1c20.4,0,38.7-8.9,51.3-23.1
		C308.7,195.1,299.5,184.1,287.7,177.1z"/>
	<path class="st0" d="M287.7,177.1c-16.4,12.7-27.3,32.1-28.6,54.2c1,0,2,0.1,3,0.1c20.4,0,38.7-8.9,51.3-23.1
		C308.7,195.1,299.5,184.1,287.7,177.1z"/>
	<path class="st0" d="M287.7,177.1c-16.4,12.7-27.3,32.1-28.6,54.2c1,0,2,0.1,3,0.1c20.4,0,38.7-8.9,51.3-23.1
		C308.7,195.1,299.5,184.1,287.7,177.1z"/>
</g>
<g>
	<path class="st1" d="M127.3,147.8c-23-8.3-39.4-30.3-39.4-56.1c0-5.2,0.7-10.2,1.9-15C53.7,81.9,26,112.9,26,150.4
		c0,41.1,33.3,74.4,74.4,74.4c7.5,0,14.7-1.1,21.4-3.2c-5.1-9.7-8-20.8-8-32.6C113.9,173.6,118.9,159.4,127.3,147.8z"/>
	<path class="st2" d="M322.3,130.2c5.1,9.3,8,20,8.3,31.4c0.9,0,1.7-0.1,2.6-0.1c1.2,0,2.4,0,3.6,0.1c8.1-24.6,31.2-42.4,58.5-42.4
		c8.6,0,16.9,1.8,24.3,5c0-0.6,0-1.2,0-1.8c0-36.5-29-66.3-65.3-67.4c2.4,6.4,3.7,13.4,3.7,20.6C358.1,100,343.4,121,322.3,130.2z"
		/>
	<path class="st3" d="M204.8,200.2c-7-10.7-11-23.5-11-37.2c0-7.9,1.3-15.4,3.8-22.5c-3.4-1.3-6.7-2.8-9.9-4.6
		c-3.9,3.5-8.2,6.5-13,9c0.1,1.8,0.2,3.7,0.2,5.5c0,33.7-22.3,62.1-53,71.3c11.7,22.2,35,37.4,61.9,37.4c7.1,0,14-1.1,20.5-3.1
		c-4.3-8.2-6.7-17.6-6.7-27.5C197.7,218.2,200.3,208.6,204.8,200.2z"/>
	<path class="st1" d="M174.9,150.3c0-1.9-0.1-3.7-0.2-5.5c-8.1,4.2-17.4,6.5-27.1,6.5c-7.1,0-13.9-1.2-20.2-3.5
		C119,159.4,114,173.6,114,189c0,11.8,2.9,22.8,8,32.6C152.6,212.4,174.9,184,174.9,150.3z"/>
	<path class="st4" d="M174.9,150.3c0-1.9-0.1-3.7-0.2-5.5c-8.1,4.2-17.4,6.5-27.1,6.5c-7.1,0-13.9-1.2-20.2-3.5
		C119,159.4,114,173.6,114,189c0,11.8,2.9,22.8,8,32.6C152.6,212.4,174.9,184,174.9,150.3z"/>
	<path class="st5" d="M159.1,104.4c-3.9-8.6-6-18-6-28c0-15.4,5.1-29.7,13.7-41.1c-6-2.1-12.5-3.2-19.2-3.2
		c-27.7,0-51.1,18.9-57.7,44.6c3.5-0.5,7-0.8,10.7-0.8C124.3,75.9,145.4,87,159.1,104.4z"/>
	<path class="st5" d="M168.1,119.1c0.2,0.5,0.5,1,0.7,1.6c0.2,0,0.3-0.1,0.5-0.1C168.9,120.1,168.5,119.6,168.1,119.1z"/>
	<path class="st1" d="M127.3,147.8c9.9-13.5,24.5-23.4,41.5-27.1c-0.2-0.5-0.5-1-0.7-1.6c-3.6-4.5-6.6-9.4-9-14.8
		c-13.6-17.3-34.8-28.5-58.6-28.5c-3.6,0-7.2,0.3-10.7,0.8c-1.2,4.8-1.9,9.8-1.9,15C87.9,117.5,104.4,139.5,127.3,147.8z"/>
	<path class="st6" d="M127.3,147.8c9.9-13.5,24.5-23.4,41.5-27.1c-0.2-0.5-0.5-1-0.7-1.6c-3.6-4.5-6.6-9.4-9-14.8
		c-13.6-17.3-34.8-28.5-58.6-28.5c-3.6,0-7.2,0.3-10.7,0.8c-1.2,4.8-1.9,9.8-1.9,15C87.9,117.5,104.4,139.5,127.3,147.8z"/>
	<path class="st3" d="M169.3,120.6c-0.2,0-0.3,0.1-0.5,0.1c3.2,7.5,5.3,15.6,5.9,24.1c4.7-2.4,9.1-5.4,13-9
		C180.7,131.8,174.5,126.7,169.3,120.6z"/>
	<path class="st7" d="M169.3,120.6c-0.2,0-0.3,0.1-0.5,0.1c3.2,7.5,5.3,15.6,5.9,24.1c4.7-2.4,9.1-5.4,13-9
		C180.7,131.8,174.5,126.7,169.3,120.6z"/>
	<path class="st1" d="M127.3,147.8c6.3,2.3,13.1,3.5,20.2,3.5c9.8,0,19-2.4,27.1-6.5c-0.6-8.5-2.7-16.6-5.9-24.1
		C151.9,124.4,137.2,134.3,127.3,147.8z"/>
	<path class="st3" d="M127.3,147.8c6.3,2.3,13.1,3.5,20.2,3.5c9.8,0,19-2.4,27.1-6.5c-0.6-8.5-2.7-16.6-5.9-24.1
		C151.9,124.4,137.2,134.3,127.3,147.8z"/>
	<path class="st8" d="M127.3,147.8c6.3,2.3,13.1,3.5,20.2,3.5c9.8,0,19-2.4,27.1-6.5c-0.6-8.5-2.7-16.6-5.9-24.1
		C151.9,124.4,137.2,134.3,127.3,147.8z"/>
	<path class="st9" d="M259.1,231.3c-6-0.3-11.8-1.3-17.3-3c-8.9,13-22,22.9-37.4,27.7c9.9,19.1,29.9,32.1,52.9,32.1
		c7,0,13.8-1.2,20.1-3.5C266,271.5,259,254.4,259,235.7C259,234.2,259.1,232.7,259.1,231.3z"/>
	<path class="st3" d="M241.8,228.3c-15.4-4.8-28.4-14.9-37-28.1c-4.5,8.4-7.1,18-7.1,28.3c0,9.9,2.4,19.3,6.7,27.5
		C219.8,251.2,233,241.3,241.8,228.3z"/>
	<path class="st10" d="M241.8,228.3c-15.4-4.8-28.4-14.9-37-28.1c-4.5,8.4-7.1,18-7.1,28.3c0,9.9,2.4,19.3,6.7,27.5
		C219.8,251.2,233,241.3,241.8,228.3z"/>
	<path class="st11" d="M289.9,76.3c0,7.9-1.3,15.4-3.8,22.5c0.9,0.3,1.7,0.7,2.5,1c9.3-26.2,34.2-44.9,63.6-44.9
		c0.7,0,1.4,0,2.2,0.1c-8.4-22.8-30.3-39-56-39c-11.6,0-22.5,3.3-31.7,9.1C280.9,37.6,289.9,55.9,289.9,76.3z"/>
	<path class="st2" d="M288.7,99.8c14.4,6,26.3,16.8,33.7,30.4c21-9.2,35.7-30.2,35.7-54.6c0-7.2-1.3-14.2-3.7-20.6
		c-0.7,0-1.4-0.1-2.2-0.1C322.9,54.9,297.9,73.6,288.7,99.8z"/>
	<path class="st12" d="M288.7,99.8c14.4,6,26.3,16.8,33.7,30.4c21-9.2,35.7-30.2,35.7-54.6c0-7.2-1.3-14.2-3.7-20.6
		c-0.7,0-1.4-0.1-2.2-0.1C322.9,54.9,297.9,73.6,288.7,99.8z"/>
	<path class="st13" d="M419.7,124.2c-0.7,24.9-14.8,46.5-35.5,57.6c14.3,13.5,23.2,32.7,23.2,53.9c0,1.9-0.1,3.7-0.2,5.5
		c28.3-5.5,49.7-30.5,49.7-60.5C456.9,155.4,441.6,133.6,419.7,124.2z"/>
	<path class="st2" d="M336.8,161.6c18.3,0.9,34.9,8.4,47.4,20.2c20.7-11.1,34.8-32.7,35.5-57.6c-7.5-3.2-15.7-5-24.3-5
		C368,119.2,344.8,137,336.8,161.6z"/>
	<path class="st14" d="M336.8,161.6c18.3,0.9,34.9,8.4,47.4,20.2c20.7-11.1,34.8-32.7,35.5-57.6c-7.5-3.2-15.7-5-24.3-5
		C368,119.2,344.8,137,336.8,161.6z"/>
	<path class="st15" d="M207.2,91.7c0,10.6-2.8,20.5-7.6,29.2c2.4,0.6,4.8,1.2,7.1,2c8.8-12.1,21.4-21.3,36.1-25.6
		c-2.6-6.7-4.1-14-4.1-21.7c0-21.3,11.2-40,28-50.5C254.6,14.4,238.8,8,221.4,8c-22.4,0-42.2,10.7-54.7,27.3
		C190.3,43.2,207.2,65.5,207.2,91.7z"/>
	<path class="st3" d="M199.6,120.8c-3.2,5.6-7.2,10.7-11.9,15c3.1,1.8,6.4,3.4,9.9,4.6c2.2-6.3,5.3-12.2,9.2-17.6
		C204.4,122.1,202,121.4,199.6,120.8z"/>
	<path class="st16" d="M199.6,120.8c-3.2,5.6-7.2,10.7-11.9,15c3.1,1.8,6.4,3.4,9.9,4.6c2.2-6.3,5.3-12.2,9.2-17.6
		C204.4,122.1,202,121.4,199.6,120.8z"/>
	<path class="st5" d="M159.1,104.4c3.6,4.5,6.6,9.5,9,14.8c0.4,0.5,0.8,1,1.2,1.4c4.7-1,9.6-1.5,14.6-1.5c5.4,0,10.7,0.6,15.7,1.8
		c4.8-8.6,7.6-18.6,7.6-29.2c0-26.2-16.9-48.5-40.4-56.5c-8.6,11.4-13.7,25.7-13.7,41.1C153.1,86.3,155.2,95.8,159.1,104.4z"/>
	<path class="st17" d="M159.1,104.4c3.6,4.5,6.6,9.5,9,14.8c0.4,0.5,0.8,1,1.2,1.4c4.7-1,9.6-1.5,14.6-1.5c5.4,0,10.7,0.6,15.7,1.8
		c4.8-8.6,7.6-18.6,7.6-29.2c0-26.2-16.9-48.5-40.4-56.5c-8.6,11.4-13.7,25.7-13.7,41.1C153.1,86.3,155.2,95.8,159.1,104.4z"/>
	<path class="st1" d="M168.1,119.1c-2.4-5.3-5.5-10.2-9-14.8C161.5,109.7,164.5,114.6,168.1,119.1z"/>
	<path class="st5" d="M168.1,119.1c-2.4-5.3-5.5-10.2-9-14.8C161.5,109.7,164.5,114.6,168.1,119.1z"/>
	<path class="st18" d="M168.1,119.1c-2.4-5.3-5.5-10.2-9-14.8C161.5,109.7,164.5,114.6,168.1,119.1z"/>
	<path class="st3" d="M199.6,120.8c-5.1-1.2-10.3-1.8-15.7-1.8c-5,0-9.9,0.5-14.6,1.5c5.2,6.1,11.4,11.3,18.4,15.3
		C192.4,131.5,196.4,126.5,199.6,120.8z"/>
	<path class="st5" d="M199.6,120.8c-5.1-1.2-10.3-1.8-15.7-1.8c-5,0-9.9,0.5-14.6,1.5c5.2,6.1,11.4,11.3,18.4,15.3
		C192.4,131.5,196.4,126.5,199.6,120.8z"/>
	<path class="st19" d="M199.6,120.8c-5.1-1.2-10.3-1.8-15.7-1.8c-5,0-9.9,0.5-14.6,1.5c5.2,6.1,11.4,11.3,18.4,15.3
		C192.4,131.5,196.4,126.5,199.6,120.8z"/>
	<path class="st11" d="M238.8,75.6c0,7.7,1.5,15,4.1,21.7c6.1-1.8,12.6-2.8,19.3-2.8c8.4,0,16.5,1.5,23.9,4.3
		c2.4-7,3.8-14.6,3.8-22.5c0-20.4-9-38.7-23.2-51.3C250,35.6,238.8,54.3,238.8,75.6z"/>
	<path class="st20" d="M238.8,75.6c0,7.7,1.5,15,4.1,21.7c6.1-1.8,12.6-2.8,19.3-2.8c8.4,0,16.5,1.5,23.9,4.3
		c2.4-7,3.8-14.6,3.8-22.5c0-20.4-9-38.7-23.2-51.3C250,35.6,238.8,54.3,238.8,75.6z"/>
	<path class="st21" d="M267.7,126.7c-8.6,7.9-19.3,13.6-31.1,16.3c6.5,7.5,11.5,16.3,14.3,26.1c2.1-0.2,4.2-0.3,6.4-0.3
		c11.1,0,21.5,3,30.4,8.3c4.6-3.6,9.6-6.6,14.9-9c-8.6-9.4-14.6-21.1-16.9-34.2C279.3,132.5,273.2,130,267.7,126.7z"/>
	<path class="st2" d="M285.8,133.9c2.2,13.1,8.3,24.9,16.9,34.2c8.6-3.9,18-6.2,27.9-6.5c-0.2-11.3-3.2-22-8.3-31.4
		c-7.3,3.2-15.4,5-23.9,5C294.1,135.2,289.8,134.8,285.8,133.9z"/>
	<path class="st22" d="M285.8,133.9c2.2,13.1,8.3,24.9,16.9,34.2c8.6-3.9,18-6.2,27.9-6.5c-0.2-11.3-3.2-22-8.3-31.4
		c-7.3,3.2-15.4,5-23.9,5C294.1,135.2,289.8,134.8,285.8,133.9z"/>
	<path class="st3" d="M251,169.1c-2.9-9.7-7.8-18.6-14.3-26.1c-4.9,1.1-9.9,1.7-15.1,1.7c-8.4,0-16.5-1.5-23.9-4.3
		c-2.4,7-3.8,14.6-3.8,22.5c0,13.7,4.1,26.5,11,37.2C213.9,183.2,231,171.2,251,169.1z"/>
	<path class="st23" d="M251,169.1c-2.9-9.7-7.8-18.6-14.3-26.1c-4.9,1.1-9.9,1.7-15.1,1.7c-8.4,0-16.5-1.5-23.9-4.3
		c-2.4,7-3.8,14.6-3.8,22.5c0,13.7,4.1,26.5,11,37.2C213.9,183.2,231,171.2,251,169.1z"/>
	<path class="st9" d="M287.7,177.1c-8.9-5.3-19.3-8.3-30.4-8.3c-2.2,0-4.3,0.1-6.4,0.3c1.9,6.3,2.9,13,2.9,19.9
		c0,14.5-4.4,28.1-12,39.2c5.5,1.7,11.3,2.7,17.3,3C260.4,209.3,271.4,189.8,287.7,177.1z"/>
	<path class="st24" d="M287.7,177.1c-8.9-5.3-19.3-8.3-30.4-8.3c-2.2,0-4.3,0.1-6.4,0.3c1.9,6.3,2.9,13,2.9,19.9
		c0,14.5-4.4,28.1-12,39.2c5.5,1.7,11.3,2.7,17.3,3C260.4,209.3,271.4,189.8,287.7,177.1z"/>
	<path class="st3" d="M251,169.1c-20,2.1-37,14.1-46.2,31c8.6,13.2,21.6,23.3,37,28.1c7.6-11.2,12-24.7,12-39.2
		C253.8,182.1,252.8,175.4,251,169.1z"/>
	<path class="st9" d="M251,169.1c-20,2.1-37,14.1-46.2,31c8.6,13.2,21.6,23.3,37,28.1c7.6-11.2,12-24.7,12-39.2
		C253.8,182.1,252.8,175.4,251,169.1z"/>
	<path class="st25" d="M251,169.1c-20,2.1-37,14.1-46.2,31c8.6,13.2,21.6,23.3,37,28.1c7.6-11.2,12-24.7,12-39.2
		C253.8,182.1,252.8,175.4,251,169.1z"/>
	<path class="st11" d="M267.7,126.7c5.5,3.3,11.6,5.7,18,7.1c-0.6-3.7-1-7.6-1-11.5c0-7.9,1.4-15.5,3.9-22.6c-0.8-0.4-1.7-0.7-2.5-1
		C282.4,109.6,276,119.2,267.7,126.7z"/>
	<path class="st26" d="M267.7,126.7c5.5,3.3,11.6,5.7,18,7.1c-0.6-3.7-1-7.6-1-11.5c0-7.9,1.4-15.5,3.9-22.6c-0.8-0.4-1.7-0.7-2.5-1
		C282.4,109.6,276,119.2,267.7,126.7z"/>
	<path class="st2" d="M285.8,133.9c4.1,0.9,8.3,1.4,12.6,1.4c8.5,0,16.6-1.8,23.9-5c-7.4-13.6-19.3-24.4-33.7-30.4
		c-2.5,7.1-3.9,14.7-3.9,22.6C284.8,126.3,285.1,130.1,285.8,133.9z"/>
	<path class="st11" d="M285.8,133.9c4.1,0.9,8.3,1.4,12.6,1.4c8.5,0,16.6-1.8,23.9-5c-7.4-13.6-19.3-24.4-33.7-30.4
		c-2.5,7.1-3.9,14.7-3.9,22.6C284.8,126.3,285.1,130.1,285.8,133.9z"/>
	<path class="st27" d="M285.8,133.9c4.1,0.9,8.3,1.4,12.6,1.4c8.5,0,16.6-1.8,23.9-5c-7.4-13.6-19.3-24.4-33.7-30.4
		c-2.5,7.1-3.9,14.7-3.9,22.6C284.8,126.3,285.1,130.1,285.8,133.9z"/>
	<path class="st15" d="M236.6,143.1c11.8-2.7,22.5-8.4,31.1-16.3c-11.2-6.8-20.1-17.1-24.9-29.5c-14.7,4.3-27.4,13.5-36.1,25.6
		C218.4,126.9,228.7,133.9,236.6,143.1z"/>
	<path class="st28" d="M236.6,143.1c11.8-2.7,22.5-8.4,31.1-16.3c-11.2-6.8-20.1-17.1-24.9-29.5c-14.7,4.3-27.4,13.5-36.1,25.6
		C218.4,126.9,228.7,133.9,236.6,143.1z"/>
	<path class="st3" d="M236.6,143.1c-8-9.1-18.2-16.2-29.9-20.2c-3.9,5.3-7,11.2-9.2,17.6c7.4,2.8,15.5,4.3,23.9,4.3
		C226.7,144.8,231.7,144.2,236.6,143.1z"/>
	<path class="st15" d="M236.6,143.1c-8-9.1-18.2-16.2-29.9-20.2c-3.9,5.3-7,11.2-9.2,17.6c7.4,2.8,15.5,4.3,23.9,4.3
		C226.7,144.8,231.7,144.2,236.6,143.1z"/>
	<path class="st29" d="M236.6,143.1c-8-9.1-18.2-16.2-29.9-20.2c-3.9,5.3-7,11.2-9.2,17.6c7.4,2.8,15.5,4.3,23.9,4.3
		C226.7,144.8,231.7,144.2,236.6,143.1z"/>
	<path class="st11" d="M267.7,126.7c8.2-7.6,14.6-17.1,18.4-27.9c-7.4-2.8-15.5-4.3-23.9-4.3c-6.7,0-13.2,1-19.3,2.8
		C247.7,109.6,256.5,120,267.7,126.7z"/>
	<path class="st15" d="M267.7,126.7c8.2-7.6,14.6-17.1,18.4-27.9c-7.4-2.8-15.5-4.3-23.9-4.3c-6.7,0-13.2,1-19.3,2.8
		C247.7,109.6,256.5,120,267.7,126.7z"/>
	<path class="st30" d="M267.7,126.7c8.2-7.6,14.6-17.1,18.4-27.9c-7.4-2.8-15.5-4.3-23.9-4.3c-6.7,0-13.2,1-19.3,2.8
		C247.7,109.6,256.5,120,267.7,126.7z"/>
	<path class="st31" d="M334.1,187.3c-2.4-0.7-4.8-1.5-7.1-2.4c-2.9,8.7-7.6,16.6-13.5,23.3c2.3,6.3,3.5,13.1,3.5,20.2
		c0,25.9-16.5,47.9-39.6,56.2c0.5,0.5,0.9,1.1,1.4,1.6l0,0c26.1,30.3,66.3,51,104.6,48.6c-21.8-5.6-35.4-16.4-43.2-25.2
		c35.9-3.4,64.3-32.3,67-68.3c-3.8,0.7-7.8,1.2-11.9,1.2C363.5,242.4,337.3,218.3,334.1,187.3z"/>
	<path class="st2" d="M336.8,161.6c-1.2-0.1-2.4-0.1-3.6-0.1c-0.9,0-1.7,0-2.6,0.1c0,0.4,0,0.9,0,1.3c0,7.7-1.3,15.1-3.6,22
		c2.3,0.9,4.7,1.7,7.1,2.4c-0.2-2.1-0.3-4.3-0.3-6.5C333.7,174.1,334.8,167.7,336.8,161.6z"/>
	<path class="st32" d="M336.8,161.6c-1.2-0.1-2.4-0.1-3.6-0.1c-0.9,0-1.7,0-2.6,0.1c0,0.4,0,0.9,0,1.3c0,7.7-1.3,15.1-3.6,22
		c2.3,0.9,4.7,1.7,7.1,2.4c-0.2-2.1-0.3-4.3-0.3-6.5C333.7,174.1,334.8,167.7,336.8,161.6z"/>
	<path class="st9" d="M317,228.4c0-7.1-1.2-13.9-3.5-20.2c-12.5,14.2-30.8,23.1-51.3,23.1c-1,0-2,0-3-0.1c-0.1,1.5-0.1,3-0.1,4.5
		c0,18.7,7,35.8,18.4,48.9C300.5,276.3,317,254.3,317,228.4z"/>
	<path class="st33" d="M317,228.4c0-7.1-1.2-13.9-3.5-20.2c-12.5,14.2-30.8,23.1-51.3,23.1c-1,0-2,0-3-0.1c-0.1,1.5-0.1,3-0.1,4.5
		c0,18.7,7,35.8,18.4,48.9C300.5,276.3,317,254.3,317,228.4z"/>
	<path class="st13" d="M384.2,181.8c-9.5,5.1-20.4,8-31.9,8c-6.3,0-12.4-0.9-18.2-2.5c3.3,31,29.4,55.1,61.3,55.1
		c4.1,0,8-0.4,11.9-1.2c0.1-1.8,0.2-3.7,0.2-5.5C407.4,214.5,398.5,195.3,384.2,181.8z"/>
	<path class="st34" d="M384.2,181.8c-9.5,5.1-20.4,8-31.9,8c-6.3,0-12.4-0.9-18.2-2.5c3.3,31,29.4,55.1,61.3,55.1
		c4.1,0,8-0.4,11.9-1.2c0.1-1.8,0.2-3.7,0.2-5.5C407.4,214.5,398.5,195.3,384.2,181.8z"/>
	<path class="st2" d="M333.7,180.8c0,2.2,0.1,4.4,0.3,6.5c5.8,1.6,11.9,2.5,18.2,2.5c11.6,0,22.4-2.9,31.9-8
		c-12.5-11.8-29.1-19.3-47.4-20.2C334.8,167.7,333.7,174.1,333.7,180.8z"/>
	<path class="st13" d="M333.7,180.8c0,2.2,0.1,4.4,0.3,6.5c5.8,1.6,11.9,2.5,18.2,2.5c11.6,0,22.4-2.9,31.9-8
		c-12.5-11.8-29.1-19.3-47.4-20.2C334.8,167.7,333.7,174.1,333.7,180.8z"/>
	<path class="st35" d="M333.7,180.8c0,2.2,0.1,4.4,0.3,6.5c5.8,1.6,11.9,2.5,18.2,2.5c11.6,0,22.4-2.9,31.9-8
		c-12.5-11.8-29.1-19.3-47.4-20.2C334.8,167.7,333.7,174.1,333.7,180.8z"/>
	<path class="st21" d="M302.6,168.1c-5.3,2.4-10.3,5.4-14.9,9c11.8,7,21,18,25.7,31.1c5.9-6.7,10.6-14.6,13.5-23.3
		C317.7,181.2,309.4,175.4,302.6,168.1z"/>
	<path class="st36" d="M302.6,168.1c-5.3,2.4-10.3,5.4-14.9,9c11.8,7,21,18,25.7,31.1c5.9-6.7,10.6-14.6,13.5-23.3
		C317.7,181.2,309.4,175.4,302.6,168.1z"/>
	<path class="st2" d="M330.6,161.6c-9.9,0.3-19.4,2.6-27.9,6.5c6.7,7.3,15,13.1,24.3,16.8c2.3-6.9,3.6-14.3,3.6-22
		C330.6,162.5,330.6,162,330.6,161.6z"/>
	<path class="st21" d="M330.6,161.6c-9.9,0.3-19.4,2.6-27.9,6.5c6.7,7.3,15,13.1,24.3,16.8c2.3-6.9,3.6-14.3,3.6-22
		C330.6,162.5,330.6,162,330.6,161.6z"/>
	<path class="st37" d="M330.6,161.6c-9.9,0.3-19.4,2.6-27.9,6.5c6.7,7.3,15,13.1,24.3,16.8c2.3-6.9,3.6-14.3,3.6-22
		C330.6,162.5,330.6,162,330.6,161.6z"/>
	<path class="st9" d="M287.7,177.1c-16.4,12.7-27.3,32.1-28.6,54.2c1,0,2,0.1,3,0.1c20.4,0,38.7-8.9,51.3-23.1
		C308.7,195.1,299.5,184.1,287.7,177.1z"/>
	<path class="st21" d="M287.7,177.1c-16.4,12.7-27.3,32.1-28.6,54.2c1,0,2,0.1,3,0.1c20.4,0,38.7-8.9,51.3-23.1
		C308.7,195.1,299.5,184.1,287.7,177.1z"/>
	<path class="st38" d="M287.7,177.1c-16.4,12.7-27.3,32.1-28.6,54.2c1,0,2,0.1,3,0.1c20.4,0,38.7-8.9,51.3-23.1
		C308.7,195.1,299.5,184.1,287.7,177.1z"/>
</g>
</svg>
