<?xml version="1.0" encoding="utf-8"?>
<!-- Generator: Adobe Illustrator 27.0.1, SVG Export Plug-In . SVG Version: 6.00 Build 0)  -->
<svg version="1.1" id="Layer_1" xmlns="http://www.w3.org/2000/svg" xmlns:xlink="http://www.w3.org/1999/xlink" x="0px" y="0px"
	 viewBox="0 0 100 100" style="enable-background:new 0 0 100 100;" xml:space="preserve">
<style type="text/css">
	.st0{fill:#EAEEF5;}
	.st1{fill:#AB9FC3;stroke:#B1C2D9;stroke-width:2;stroke-miterlimit:10;}
</style>
<rect class="st0" width="100" height="100"/>
<g id="insights">
	<g>
		<path class="st1" d="M71.4,55.1c-0.3-0.2-0.4-0.4-0.7-0.7c-1.3,7.7-8.1,13.7-16.2,13.7H39.8c-4.1,0-8,1.5-11,4.3l-1.3,1.2
			c-0.7,0.6-1.5,0.8-2.4,0.4c-0.9-0.3-1.3-1.1-1.3-2V51.8c0-8.1,5.8-14.8,13.6-16.2c0-0.9,0.2-1.8,0.6-2.6
			c-9.4,1.2-16.6,9.1-16.6,18.7v20.4c0,1.9,1,3.5,2.8,4.3c0.6,0.3,1.3,0.4,1.9,0.4c1.1,0,2.2-0.4,3.2-1.3l1.3-1.2
			c2.5-2.4,5.8-3.7,9.3-3.7h14.7c8.9,0,16.3-6.2,18.4-14.4C72.3,55.9,71.9,55.6,71.4,55.1z"/>
	</g>
	<g>
		<path class="st1" d="M77.8,61.7c-0.7,0-1.4-0.3-2-0.8l-3.3-3c-2.1-2-4.9-3.1-7.9-3.1H52.1c-9,0-16.4-7.4-16.4-16.4
			S43,21.9,52.1,21.9h12.2c9,0,16.4,7.4,16.4,16.4v20.5c0,1.2-0.7,2.2-1.7,2.7C78.5,61.6,78.2,61.7,77.8,61.7z M52.1,24.3
			c-7.7,0-13.9,6.3-13.9,13.9s6.3,13.9,13.9,13.9h12.6c3.5,0,7,1.4,9.5,3.8l3.3,3c0.2,0.2,0.4,0.1,0.5,0.1c0.1-0.1,0.3-0.2,0.3-0.4
			V38.3c0-7.7-6.3-14-14-14H52.1z"/>
	</g>
</g>
</svg>
