<?xml version="1.0" encoding="utf-8"?>
<!-- Generator: Adobe Illustrator 27.0.1, SVG Export Plug-In . SVG Version: 6.00 Build 0)  -->
<svg version="1.1" id="Layer_1" xmlns="http://www.w3.org/2000/svg" xmlns:xlink="http://www.w3.org/1999/xlink" x="0px" y="0px"
	 viewBox="0 0 100 100" style="enable-background:new 0 0 100 100;" xml:space="preserve">
<style type="text/css">
	.st0{fill:#FFFFFF;}
	.st1{display:none;fill:url(#SVGID_1_);}
	.st2{display:none;fill:url(#SVGID_00000003789605051193371000000002065366811850350013_);}
	.st3{fill:url(#SVGID_00000112625626538168328280000007107106290115179161_);}
	.st4{fill:url(#SVGID_00000160170970616922588980000001278895465809803915_);}
	.st5{fill:url(#SVGID_00000129898083451472868050000013722033619788063137_);}
	.st6{fill:url(#SVGID_00000088113178194619427720000008475132045703694223_);}
</style>
<rect class="st0" width="100" height="100"/>
<g id="Bubble_29_">
	
		<radialGradient id="SVGID_1_" cx="-160.9325" cy="-59.0928" r="8.4941" gradientTransform="matrix(5.0085 0.2581 0.1549 -3.0054 864.3281 -74.6493)" gradientUnits="userSpaceOnUse">
		<stop  offset="0" style="stop-color:#4D9F00"/>
		<stop  offset="1.635283e-02" style="stop-color:#53A209"/>
		<stop  offset="0.1327" style="stop-color:#7BB842"/>
		<stop  offset="0.2524" style="stop-color:#9ECB74"/>
		<stop  offset="0.3728" style="stop-color:#BCDB9F"/>
		<stop  offset="0.494" style="stop-color:#D4E8C2"/>
		<stop  offset="0.6163" style="stop-color:#E7F2DD"/>
		<stop  offset="0.7402" style="stop-color:#F4F9F0"/>
		<stop  offset="0.8668" style="stop-color:#FCFEFB"/>
		<stop  offset="1" style="stop-color:#FFFFFF"/>
	</radialGradient>
	<path class="st1" d="M91.7,63.6C91,77.7,71.3,88.2,47.8,86.9c-23.5-1.2-42-13.6-41.2-27.7S27,34.7,50.5,35.9
		C73.9,37.1,92.4,49.5,91.7,63.6z"/>
	
		<radialGradient id="SVGID_00000131365943677951225010000000181067973713534603_" cx="-184.9399" cy="46.5932" r="13.0675" gradientTransform="matrix(3.6921 -0.1401 -7.260000e-02 -1.914 736.1994 121.1353)" gradientUnits="userSpaceOnUse">
		<stop  offset="0" style="stop-color:#4D9F00"/>
		<stop  offset="1.635283e-02" style="stop-color:#53A209"/>
		<stop  offset="0.1327" style="stop-color:#7BB842"/>
		<stop  offset="0.2524" style="stop-color:#9ECB74"/>
		<stop  offset="0.3728" style="stop-color:#BCDB9F"/>
		<stop  offset="0.494" style="stop-color:#D4E8C2"/>
		<stop  offset="0.6163" style="stop-color:#E7F2DD"/>
		<stop  offset="0.7402" style="stop-color:#F4F9F0"/>
		<stop  offset="0.8668" style="stop-color:#FCFEFB"/>
		<stop  offset="1" style="stop-color:#FFFFFF"/>
	</radialGradient>
	<path style="display:none;fill:url(#SVGID_00000131365943677951225010000000181067973713534603_);" d="M98.2,56
		C98.8,69.8,77.6,81.9,51,82.9c-26.7,1-48.7-9.4-49.2-23.2S22.4,33.9,49,32.9S97.7,42.2,98.2,56z"/>
	
		<linearGradient id="SVGID_00000108296834606120353300000018134783674215189383_" gradientUnits="userSpaceOnUse" x1="58.4283" y1="31.5911" x2="-25.1939" y2="128.9057" gradientTransform="matrix(1 0 0 -1 0 102)">
		<stop  offset="0" style="stop-color:#49C900"/>
		<stop  offset="1" style="stop-color:#C9E000"/>
	</linearGradient>
	<path style="fill:url(#SVGID_00000108296834606120353300000018134783674215189383_);" d="M54.6,68.5h-21c-5.4,0-10.6,2.1-14.5,5.7
		l-1.9,1.7C14.1,78.9,9,76.7,9,72.4v-29c0-13.9,11.3-25.1,25.3-25.1h20.3c13.9,0,25.2,11.2,25.2,25.1l0,0
		C79.8,57.2,68.5,68.5,54.6,68.5z"/>
	
		<radialGradient id="SVGID_00000068644005032029720490000012580294314637426364_" cx="-5.4908" cy="-182.5451" r="12.3273" gradientTransform="matrix(2.3213 -0.3532 -0.2062 -0.7537 30.9531 -83.9166)" gradientUnits="userSpaceOnUse">
		<stop  offset="0" style="stop-color:#016A00"/>
		<stop  offset="1" style="stop-color:#A0BF55;stop-opacity:0"/>
	</radialGradient>
	<path style="fill:url(#SVGID_00000068644005032029720490000012580294314637426364_);" d="M84.5,51.3c1.4,5.1-10.3,11.2-26.1,13.6
		c-15.8,2.4-29.8,0.2-31.1-4.9c-1.4-5.1,10.3-11.2,26.1-13.6S83.1,46.1,84.5,51.3z"/>
	
		<radialGradient id="SVGID_00000065786127160971917560000015664689444802241194_" cx="-295.1223" cy="-174.1323" r="12.3328" gradientTransform="matrix(0.3719 -1.4463 -2.1868 -0.4414 -225.8695 -459.8027)" gradientUnits="userSpaceOnUse">
		<stop  offset="0" style="stop-color:#03571E"/>
		<stop  offset="1" style="stop-color:#0F5500;stop-opacity:0"/>
	</radialGradient>
	<path style="fill:url(#SVGID_00000065786127160971917560000015664689444802241194_);" d="M49.8,26.1c14.9,3,24.9,13.4,22.4,23.3
		c-2.5,9.8-16.7,15.4-31.6,12.4c-14.9-3-24.9-13.4-22.4-23.3C20.7,28.6,34.9,23,49.8,26.1z"/>
	
		<linearGradient id="SVGID_00000138566493821896823730000004844927215505639304_" gradientUnits="userSpaceOnUse" x1="94.6099" y1="1.5402" x2="45.7082" y2="86.6294" gradientTransform="matrix(1 0 0 -1 0 102)">
		<stop  offset="0" style="stop-color:#50D300"/>
		<stop  offset="0.1863" style="stop-color:#84D700"/>
		<stop  offset="0.3724" style="stop-color:#B0DA00"/>
		<stop  offset="0.5507" style="stop-color:#D2DD00"/>
		<stop  offset="0.7189" style="stop-color:#EBDF00"/>
		<stop  offset="0.8729" style="stop-color:#FAE000"/>
		<stop  offset="0.9997" style="stop-color:#FFE000"/>
	</linearGradient>
	<path style="fill:url(#SVGID_00000138566493821896823730000004844927215505639304_);" d="M48.3,56.8h18c4.6,0,9,1.8,12.4,4.9
		l4.6,4.4c1.5,1.4,4,0.3,4-1.8V35.1c0-12-9.7-21.7-21.7-21.7H48.3c-12,0-21.7,9.7-21.7,21.7l0,0C26.6,47,36.3,56.8,48.3,56.8z"/>
</g>
</svg>
