<?xml version="1.0" encoding="utf-8"?>
<!-- Generator: Adobe Illustrator 27.0.1, SVG Export Plug-In . SVG Version: 6.00 Build 0)  -->
<svg version="1.1" id="Layer_1" xmlns="http://www.w3.org/2000/svg" xmlns:xlink="http://www.w3.org/1999/xlink" x="0px" y="0px"
	 viewBox="0 0 100 100" style="enable-background:new 0 0 100 100;" xml:space="preserve">
<style type="text/css">
	.st0{fill:#FFFFFF;}
	.st1{fill:url(#SVGID_1_);}
	.st2{fill:url(#SVGID_00000151520040179953313930000009471012702701927552_);}
	.st3{fill:url(#SVGID_00000163757645563153760520000006861729481466019509_);}
	.st4{opacity:0.35;fill:url(#SVGID_00000087410174938265234840000002201202824902320295_);enable-background:new    ;}
	.st5{opacity:0.26;fill:url(#SVGID_00000134972825120437999850000011324073173100924805_);enable-background:new    ;}
	.st6{fill:url(#SVGID_00000170994623856929875240000008832968700232845199_);}
	.st7{fill:url(#SVGID_00000127749280415076697700000009442182897502579135_);}
	.st8{opacity:0.85;fill:url(#SVGID_00000026154709244440304840000003208672295098819510_);enable-background:new    ;}
</style>
<rect class="st0" width="100" height="100"/>
<g id="Logo_9_">
	
		<linearGradient id="SVGID_1_" gradientUnits="userSpaceOnUse" x1="62.4899" y1="995.3118" x2="62.4899" y2="1059.2375" gradientTransform="matrix(1 0 0 1 0 -978)">
		<stop  offset="0" style="stop-color:#029400"/>
		<stop  offset="0.9763" style="stop-color:#309F6A"/>
	</linearGradient>
	<path class="st1" d="M89.1,81.9c0,0-36.4,0.8-45.6-8.4C31.9,61.9,37,16,37,16l32,12.7c12,4.8,20.1,17.4,20.1,31.5V81.9z"/>
	
		<linearGradient id="SVGID_00000117661343906916678700000000870948376646203574_" gradientUnits="userSpaceOnUse" x1="91.8307" y1="975.8932" x2="47.0968" y2="1055.251" gradientTransform="matrix(1 0 0 1 0 -978)">
		<stop  offset="0.179" style="stop-color:#00E91C;stop-opacity:0"/>
		<stop  offset="1" style="stop-color:#309F6A"/>
	</linearGradient>
	<path style="fill:url(#SVGID_00000117661343906916678700000000870948376646203574_);" d="M37,16l52.1,65.9V60.3
		c0-14.1-8-26.7-20.1-31.5L37,16z"/>
	
		<linearGradient id="SVGID_00000148631211345290081190000011178961359102523579_" gradientUnits="userSpaceOnUse" x1="90.6698" y1="977.9526" x2="51.9114" y2="1046.7098" gradientTransform="matrix(1 0 0 1 0 -978)">
		<stop  offset="0" style="stop-color:#FFFFFF"/>
		<stop  offset="1" style="stop-color:#FFFFFF;stop-opacity:0"/>
	</linearGradient>
	<polygon style="fill:url(#SVGID_00000148631211345290081190000011178961359102523579_);" points="37,16 89.1,81.9 89.1,79.1 	"/>
	
		<linearGradient id="SVGID_00000075879317871279447670000005648427892304706207_" gradientUnits="userSpaceOnUse" x1="43.8543" y1="1057.6165" x2="47.9504" y2="1006.9543" gradientTransform="matrix(1 0 0 1 0 -978)">
		<stop  offset="0" style="stop-color:#000000"/>
		<stop  offset="0.999" style="stop-color:#000000;stop-opacity:0"/>
	</linearGradient>
	<path style="opacity:0.35;fill:url(#SVGID_00000075879317871279447670000005648427892304706207_);enable-background:new    ;" d="
		M43.5,73.5C61,59.4,55.9,40,55.9,40l-5.1-6.6C50.8,33.4,18.6,93.6,43.5,73.5z"/>
	
		<linearGradient id="SVGID_00000159442337690033031800000002275815472219095941_" gradientUnits="userSpaceOnUse" x1="42.8704" y1="1042.6744" x2="43.8224" y2="1020.9219" gradientTransform="matrix(1 0 0 1 0 -978)">
		<stop  offset="0.12" style="stop-color:#000000"/>
		<stop  offset="1" style="stop-color:#070707;stop-opacity:0"/>
	</linearGradient>
	<path style="opacity:0.26;fill:url(#SVGID_00000159442337690033031800000002275815472219095941_);enable-background:new    ;" d="
		M37,76.7c15.6-5.3,15.8-40.6,15.8-40.6L49.6,32C49.6,32,25.2,80.7,37,76.7z"/>
	
		<linearGradient id="SVGID_00000165200656311034156220000005073185890453812875_" gradientUnits="userSpaceOnUse" x1="-533.7504" y1="1069.3009" x2="-468.3441" y2="1005.5286" gradientTransform="matrix(-1 0 0 1 -467.5449 -978)">
		<stop  offset="0" style="stop-color:#FDA900"/>
		<stop  offset="1" style="stop-color:#F5F800"/>
	</linearGradient>
	<path style="fill:url(#SVGID_00000165200656311034156220000005073185890453812875_);" d="M10.3,81.9c0,0,21.8,3.8,34.9-9.8
		c9-9.3,4.5-42,4.5-42l-20.5,9.2c-11.4,5.1-18.9,17.4-18.9,31L10.3,81.9L10.3,81.9z"/>
	
		<linearGradient id="SVGID_00000085213728704484562760000014359511238679233197_" gradientUnits="userSpaceOnUse" x1="29.95" y1="985.3523" x2="29.95" y2="1075.8521" gradientTransform="matrix(1 0 0 1 0 -978)">
		<stop  offset="0.4892" style="stop-color:#FDA900;stop-opacity:0"/>
		<stop  offset="0.7478" style="stop-color:#FDA900"/>
	</linearGradient>
	<path style="fill:url(#SVGID_00000085213728704484562760000014359511238679233197_);" d="M49.6,30.1L10.3,81.9V70.3
		c0-13.6,7.5-25.9,18.9-31L49.6,30.1z"/>
	
		<linearGradient id="SVGID_00000165927279369006316150000017948484889271038612_" gradientUnits="userSpaceOnUse" x1="10.3" y1="1034" x2="49.6561" y2="1034" gradientTransform="matrix(1 0 0 1 0 -978)">
		<stop  offset="0" style="stop-color:#FFFFFF"/>
		<stop  offset="1" style="stop-color:#FFFFFF;stop-opacity:0"/>
	</linearGradient>
	
		<polygon style="opacity:0.85;fill:url(#SVGID_00000165927279369006316150000017948484889271038612_);enable-background:new    ;" points="
		49.6,30.1 10.3,81.9 10.3,79.9 	"/>
</g>
</svg>
