<?xml version="1.0" encoding="utf-8"?>
<!-- Generator: Adobe Illustrator 27.0.1, SVG Export Plug-In . SVG Version: 6.00 Build 0)  -->
<svg version="1.1" id="Layer_1" xmlns="http://www.w3.org/2000/svg" xmlns:xlink="http://www.w3.org/1999/xlink" x="0px" y="0px"
	 viewBox="0 0 100 100" style="enable-background:new 0 0 100 100;" xml:space="preserve">
<style type="text/css">
	.st0{fill:#F2EEF7;}
	.st1{fill:#AB9FC3;stroke:#AB9FC3;stroke-width:2;stroke-miterlimit:10;}
</style>
<rect class="st0" width="100" height="100"/>
<g id="intake">
	<g>
		<path class="st1" d="M54.8,76.6H22c-0.5,0-0.8-0.3-1.1-0.8C18,54.9,32.5,47.2,32.7,47.2l20.5-6.7c0.5-0.3,1.1-0.3,1.6,0
			c0.5,0.3,0.8,0.8,0.8,1.3c-0.3,5.4,0.5,33.4,0.5,33.7c0,0.3,0,0.5-0.3,0.8C55.3,76.6,55.1,76.6,54.8,76.6z M22.8,74.7h30.9
			c0-5.1-0.5-26.2-0.5-32.1L33.3,49C33,49,20.7,56,22.8,74.7z M53.4,41.3L53.4,41.3L53.4,41.3z"/>
	</g>
	<g>
		<path class="st1" d="M80.3,76.6H51.2c-0.5,0-1.1-0.5-1.1-1.1c0-0.5,4.9-0.4,5.6-1l23.6,0c0.3-25.7-7.8-45.2-7.8-45.2L42.4,18v25.4
			c0,0.5-0.5,1.1-1.1,1.1c-0.5,0-1.1-0.5-1.1-1.1v-27c0-0.3,0.3-0.5,0.5-0.8c0.3-0.3,0.5-0.3,0.8,0l30.8,11.8
			c0.5,0.3,9.4,20.1,8.8,48.1C81.4,76.1,80.9,76.6,80.3,76.6z"/>
	</g>
</g>
</svg>
