<?xml version="1.0" encoding="utf-8"?>
<!-- Generator: Adobe Illustrator 27.0.1, SVG Export Plug-In . SVG Version: 6.00 Build 0)  -->
<svg version="1.1" id="Layer_1" xmlns="http://www.w3.org/2000/svg" xmlns:xlink="http://www.w3.org/1999/xlink" x="0px" y="0px"
	 viewBox="0 0 100 100" style="enable-background:new 0 0 100 100;" xml:space="preserve">
<style type="text/css">
	.st0{fill:#FFFFFF;}
	.st1{fill:#286BAF;}
	.st2{fill:#66B6F5;}
	.st3{fill:#1070DC;}
	.st4{fill:url(#SVGID_1_);}
</style>
<rect class="st0" width="100" height="100"/>
<g>
	<path class="st1" d="M93.5,27.8L79.3,64.6c-2.6-7.3-4.5-15.7-5.4-25.5L93.5,27.8z"/>
	<path class="st2" d="M70.9,16.7c0,0-3.5,24.5,7.6,48.8c-18.3-21-31.2-33.2-31.2-33.2L70.9,16.7z"/>
	<g>
		<path class="st3" d="M2.9,55.3l27-35.2l49.4,48.3l17.9-36.9L80.3,72.2C80.3,72.2,52.4,40.8,2.9,55.3z"/>
		
			<linearGradient id="SVGID_1_" gradientUnits="userSpaceOnUse" x1="2.8502" y1="34.6362" x2="80.3346" y2="34.6362" gradientTransform="matrix(1 0 0 -1 0 102)">
			<stop  offset="0" style="stop-color:#075ED3"/>
			<stop  offset="1" style="stop-color:#074581"/>
		</linearGradient>
		<path class="st4" d="M29.7,83.3l-26.9-28c49.6-14.5,77.5,16.9,77.5,16.9L33.2,82.6L29.7,83.3z"/>
	</g>
</g>
</svg>
