<?xml version="1.0" encoding="utf-8"?>
<!-- Generator: Adobe Illustrator 27.0.1, SVG Export Plug-In . SVG Version: 6.00 Build 0)  -->
<svg version="1.1" id="Layer_1" xmlns="http://www.w3.org/2000/svg" xmlns:xlink="http://www.w3.org/1999/xlink" x="0px" y="0px"
	 viewBox="0 0 100 100" style="enable-background:new 0 0 100 100;" xml:space="preserve">
<style type="text/css">
	.st0{fill:#F2EEF7;}
	.st1{fill:none;stroke:#AB9FC3;stroke-width:3;stroke-linecap:round;stroke-linejoin:round;stroke-miterlimit:10;}
	.st2{fill:none;stroke:#AB9FC3;stroke-width:3.5;stroke-linecap:round;stroke-linejoin:round;stroke-miterlimit:10;}
</style>
<rect class="st0" width="100" height="100"/>
<g id="alarm_clock_1_">
	<g>
		<line class="st1" x1="60.1" y1="53.8" x2="49.5" y2="53.8"/>
		<line class="st1" x1="49.3" y1="38" x2="49.3" y2="53.4"/>
	</g>
	<circle class="st2" cx="50.5" cy="52" r="25"/>
	<path class="st1" d="M77,35.5c1.7-1.5,2.7-3.6,2.7-6c0-4.5-3.6-8-8-8c-2.6,0-5,1.3-6.5,3.3"/>
	<path class="st1" d="M35.8,24.8c-1.5-2-3.8-3.3-6.5-3.3c-4.5,0-8,3.6-8,8c0,2.4,1,4.5,2.7,6"/>
	<line class="st1" x1="36.5" y1="73" x2="32.5" y2="81"/>
	<line class="st1" x1="64.5" y1="73" x2="68.5" y2="81"/>
	<line class="st1" x1="45.1" y1="21.2" x2="53.5" y2="21.2"/>
</g>
</svg>
