<?xml version="1.0" encoding="utf-8"?>
<!-- Generator: Adobe Illustrator 27.0.1, SVG Export Plug-In . SVG Version: 6.00 Build 0)  -->
<svg version="1.1" id="Layer_1" xmlns="http://www.w3.org/2000/svg" xmlns:xlink="http://www.w3.org/1999/xlink" x="0px" y="0px"
	 viewBox="0 0 100 100" style="enable-background:new 0 0 100 100;" xml:space="preserve">
<style type="text/css">
	.st0{fill:#FFFFFF;}
	.st1{fill:#AA7805;}
	.st2{fill:#FBBC05;}
	.st3{fill:#EFF2F5;}
	.st4{fill:#EBB100;}
</style>
<rect class="st0" width="100" height="100"/>
<g>
	<path d="M74.1,25.8l-0.7-0.6c-0.7-0.6-0.7-1.7-0.1-2.3l2-2.1c0.6-0.7,1.7-0.7,2.3-0.1l0.7,0.6c0.7,0.6,0.7,1.7,0.1,2.3l-2,2.1
		C75.8,26.4,74.8,26.4,74.1,25.8z"/>
	<path d="M32.6,79.9L32,79.5c-0.5-0.3-0.7-0.9-0.5-1.5l2.2-6l5,3.2l-4.5,4.5C33.7,80.1,33.1,80.2,32.6,79.9z"/>
	<path d="M69.5,79.9l0.6-0.4c0.5-0.3,0.7-0.9,0.5-1.5l-2.2-6l-5,3.2l4.5,4.5C68.4,80.1,69,80.2,69.5,79.9z"/>
	<circle class="st1" cx="51" cy="51.8" r="28.2"/>
	<path class="st2" d="M51,79.9C51,79.9,51,79.9,51,79.9c15.6,0,28.2-12.6,28.2-28.2S66.6,23.6,51,23.6c0,0,0,0,0,0V79.9z"/>
	<circle class="st0" cx="51" cy="51.8" r="22.8"/>
	<path class="st3" d="M51,74.6C51,74.6,51,74.6,51,74.6c12.6,0,22.9-10.2,22.9-22.8S63.7,28.9,51,28.9c0,0,0,0,0,0V74.6z"/>
	<path d="M51,18.2c-2.8,0-5,2.4-5,4.4h10C56.1,20.5,53.8,18.2,51,18.2z"/>
	<path class="st1" d="M76.4,22.6c-4.9-4.5-12.4-4.2-14.9-1.5l17.7,16.1C81.7,34.5,81.3,27.1,76.4,22.6z"/>
	<path d="M51.2,36h-0.3c-0.5,0-0.9-0.4-0.9-0.9l0-2.8c0-0.5,0.4-0.9,0.9-0.9h0.3c0.5,0,0.9,0.4,0.9,0.9l0,2.8
		C52.1,35.6,51.7,36,51.2,36z"/>
	<path d="M40,40.5l-0.2,0.2c-0.3,0.3-0.9,0.3-1.3,0l-2-2c-0.3-0.3-0.3-0.9,0-1.3l0.2-0.2c0.3-0.3,0.9-0.3,1.3,0l2,2
		C40.3,39.6,40.3,40.2,40,40.5z"/>
	<path d="M35.3,51.6v0.3c0,0.5-0.4,0.9-0.9,0.9l-2.8,0c-0.5,0-0.9-0.4-0.9-0.9v-0.3c0-0.5,0.4-0.9,0.9-0.9l2.8,0
		C34.9,50.7,35.3,51.1,35.3,51.6z"/>
	<path d="M39.8,62.8L40,63c0.3,0.3,0.3,0.9,0,1.3l-2,2c-0.3,0.3-0.9,0.3-1.3,0L36.6,66c-0.3-0.3-0.3-0.9,0-1.3l2-2
		C38.9,62.5,39.5,62.5,39.8,62.8z"/>
	<path d="M50.9,67.5h0.3c0.5,0,0.9,0.4,0.9,0.9l0,2.8c0,0.5-0.4,0.9-0.9,0.9h-0.3c-0.5,0-0.9-0.4-0.9-0.9l0-2.8
		C50,67.9,50.4,67.5,50.9,67.5z"/>
	<path d="M62.1,63l0.2-0.2c0.3-0.3,0.9-0.3,1.3,0l2,2c0.3,0.3,0.3,0.9,0,1.3l-0.2,0.2c-0.3,0.3-0.9,0.3-1.3,0l-2-2
		C61.7,63.9,61.7,63.4,62.1,63z"/>
	<path d="M66.8,51.9v-0.3c0-0.5,0.4-0.9,0.9-0.9l2.8,0c0.5,0,0.9,0.4,0.9,0.9v0.3c0,0.5-0.4,0.9-0.9,0.9l-2.8,0
		C67.2,52.8,66.8,52.4,66.8,51.9z"/>
	<path d="M62.3,40.7l-0.2-0.2c-0.3-0.3-0.3-0.9,0-1.3l2-2c0.3-0.3,0.9-0.3,1.3,0l0.2,0.2c0.3,0.3,0.3,0.9,0,1.3l-2,2
		C63.2,41.1,62.6,41.1,62.3,40.7z"/>
	<ellipse cx="51" cy="51.8" rx="2.7" ry="2.7"/>
	<rect x="49.8" y="37.9" width="2.5" height="12.6"/>
	<rect x="51.1" y="50.6" width="12.6" height="2.5"/>
	
		<rect x="39.5" y="56.2" transform="matrix(0.7071 -0.7071 0.7071 0.7071 -26.4331 49.2764)" class="st4" width="13.4" height="0.8"/>
	<ellipse class="st4" cx="51.1" cy="51.8" rx="1.3" ry="1.3"/>
	<path class="st2" d="M70.4,29.2l8.8,8.1c2.5-2.7,2.1-10.2-2.8-14.7L70.4,29.2z"/>
	<path d="M28,25.8l0.7-0.6c0.7-0.6,0.7-1.7,0.1-2.3l-2-2.1c-0.6-0.7-1.7-0.7-2.3-0.1l-0.7,0.6c-0.7,0.6-0.7,1.7-0.1,2.3l2,2.1
		C26.2,26.4,27.3,26.4,28,25.8z"/>
	<path class="st1" d="M25.6,22.6c4.9-4.5,12.4-4.2,14.9-1.5L22.8,37.3C20.3,34.5,20.8,27.1,25.6,22.6z"/>
	<path class="st2" d="M31.7,29.2l-8.8,8.1c-2.5-2.7-2.1-10.2,2.8-14.7L31.7,29.2z"/>
</g>
</svg>
