<?xml version="1.0" encoding="utf-8"?>
<!-- Generator: Adobe Illustrator 27.0.1, SVG Export Plug-In . SVG Version: 6.00 Build 0)  -->
<svg version="1.1" id="Layer_1" xmlns="http://www.w3.org/2000/svg" xmlns:xlink="http://www.w3.org/1999/xlink" x="0px" y="0px"
	 viewBox="0 0 100 100" style="enable-background:new 0 0 100 100;" xml:space="preserve">
<style type="text/css">
	.st0{fill:#EAEEF5;}
	.st1{fill:#B1C2D9;}
</style>
<rect class="st0" width="100" height="100"/>
<path id="skills_building" class="st1" d="M38,75.9c-3.9-1.4-7.5-3.9-10.7-6.8c-6.8-6.8-10-16.8-8.6-26.1c3.6-0.7,6.8-0.7,10.4,0
	c1.1,0,1.8-0.4,2.1-1.4c0.4-1.1-0.4-1.8-1.4-2.1c-4.3-1.1-8.6-1.1-12.9,0c-0.7,0-1.4,0.7-1.4,1.4c-2.1,11.1,1.4,22.5,9.3,30.7
	c3.2,3.2,7.5,6.1,11.8,7.5c0.4,0,0.4,0,0.7,0l0,0c0.7,0,1.4-0.4,1.8-1.1C39.4,77.3,38.7,76.3,38,75.9z M51.6,21.2
	c-0.7-0.4-1.4-0.4-2.1,0c-3.6,2.5-6.8,5.7-9.3,9.3c-10.4,15.7-6.4,36.8,9.3,47.2c0.4,0.4,0.7,0.4,1.1,0.4s0.7,0,1.1-0.4
	c3.6-2.5,6.8-5.7,9.3-9.3C71.2,52.7,67.3,31.6,51.6,21.2z M50.5,74.1c-2.5-1.8-4.6-3.9-6.8-6.8c-9.7-13.6-6.8-32.5,6.8-42.5
	c2.5,1.8,4.6,3.9,6.8,6.8C66.9,45.2,64.1,64.1,50.5,74.1z M85.5,40.9c0-0.7-0.7-1.4-1.4-1.4c-4.3-0.7-8.6-0.7-12.9,0
	c-1.1,0.4-1.4,1.1-1.4,2.1c0,1.1,1.1,1.8,2.1,1.4c3.6-0.7,6.8-0.7,10.4-0.4c1.4,9.7-1.8,19.3-8.6,26.1c-2.9,2.9-6.8,5.4-10.7,6.8
	c-0.7,0.4-1.1,1.1-1.1,1.8c0,1.1,0.7,1.8,1.8,1.8c0.4,0,0.4,0,0.7,0c4.6-1.8,8.6-4.3,11.8-7.5C84.5,63.4,87.7,52,85.5,40.9z"/>
</svg>
