<?xml version="1.0" encoding="utf-8"?>
<!-- Generator: Adobe Illustrator 27.0.1, SVG Export Plug-In . SVG Version: 6.00 Build 0)  -->
<svg version="1.1" id="Layer_1" xmlns="http://www.w3.org/2000/svg" xmlns:xlink="http://www.w3.org/1999/xlink" x="0px" y="0px"
	 viewBox="0 0 483 344" style="enable-background:new 0 0 483 344;" xml:space="preserve">
<style type="text/css">
	.st0{fill:#FFFFFF;}
	.st1{fill:#FFE820;}
	.st2{fill:#CD81DD;}
	.st3{fill:#FFBF62;}
	.st4{fill:#FFAE0C;}
	.st5{fill:#FFC139;}
	.st6{fill:#FFB007;}
	.st7{fill:#FF9116;}
	.st8{fill:#FF8403;}
	.st9{fill:#FF69FF;}
	.st10{fill:#FF4F62;}
	.st11{fill:#D38DDB;}
	.st12{fill:#AA47BE;}
	.st13{fill:#8CA2FB;}
	.st14{fill:#7152DA;}
	.st15{fill:#FF9CB1;}
	.st16{fill:#FF7544;}
	.st17{fill:#FF7628;}
	.st18{fill:#FF6C05;}
	.st19{fill:#FF590F;}
	.st20{fill:#D35698;}
	.st21{fill:#FF8FD3;}
	.st22{fill:#CD48B7;}
	.st23{fill:#FF6B51;}
	.st24{fill:#FF3BD3;}
	.st25{fill:#FF2C51;}
	.st26{fill:#D34FB5;}
	.st27{fill:#AA289D;}
	.st28{fill:#FF5792;}
	.st29{fill:#FF4238;}
	.st30{fill:#D3307E;}
	.st31{fill:#AB88FF;}
	.st32{fill:#8945DD;}
	.st33{fill:#AB38FF;}
	.st34{fill:#5E56FB;}
	.st35{fill:#4C2CDA;}
	.st36{fill:#AB4CD3;}
	.st37{fill:#8926B7;}
	.st38{fill:#AB1FD3;}
</style>
<g>
	<path class="st0" d="M113.7,140.5c-17.6-6.4-30.1-23.2-30.1-42.9c0-4,0.5-7.8,1.5-11.5c-27.6,4-48.8,27.7-48.8,56.4
		c0,31.5,25.5,56.9,56.9,56.9c5.7,0,11.2-0.8,16.4-2.4c-3.9-7.4-6.1-15.9-6.1-24.9C103.4,160.2,107.2,149.3,113.7,140.5z"/>
	<path class="st0" d="M262.9,127c3.9,7.1,6.1,15.3,6.4,24c0.7,0,1.3-0.1,2-0.1c0.9,0,1.8,0,2.8,0.1c6.2-18.8,23.9-32.4,44.8-32.4
		c6.6,0,12.9,1.4,18.6,3.8c0-0.5,0-0.9,0-1.4c0-27.9-22.2-50.7-50-51.6c1.8,4.9,2.8,10.3,2.8,15.8C290.3,103.9,279,120,262.9,127z"
		/>
	<path class="st0" d="M173,180.6c-5.4-8.2-8.4-18-8.4-28.5c0-6,1-11.8,2.9-17.2c-2.6-1-5.1-2.1-7.6-3.5c-3,2.7-6.3,5-9.9,6.9
		c0.1,1.4,0.2,2.8,0.2,4.2c0,25.8-17.1,47.5-40.6,54.6c9,17,26.8,28.6,47.4,28.6c5.4,0,10.7-0.8,15.7-2.4c-3.3-6.3-5.1-13.5-5.1-21
		C167.5,194.3,169.5,187,173,180.6z"/>
	<path class="st0" d="M150.1,142.4c0-1.5-0.1-2.8-0.2-4.2c-6.2,3.2-13.3,5-20.7,5c-5.4,0-10.6-0.9-15.5-2.7
		c-6.4,8.9-10.3,19.7-10.3,31.5c0,9,2.2,17.4,6.1,24.9C133,189.9,150.1,168.2,150.1,142.4z"/>
	<path class="st0" d="M150.1,142.4c0-1.5-0.1-2.8-0.2-4.2c-6.2,3.2-13.3,5-20.7,5c-5.4,0-10.6-0.9-15.5-2.7
		c-6.4,8.9-10.3,19.7-10.3,31.5c0,9,2.2,17.4,6.1,24.9C133,189.9,150.1,168.2,150.1,142.4z"/>
	<path class="st0" d="M138,107.3c-3-6.6-4.6-13.8-4.6-21.4c0-11.8,3.9-22.7,10.5-31.5c-4.6-1.6-9.6-2.4-14.7-2.4
		c-21.2,0-39.1,14.5-44.2,34.1c2.7-0.4,5.4-0.6,8.2-0.6C111.4,85.4,127.5,93.9,138,107.3z"/>
	<path class="st0" d="M144.9,118.5c0.2,0.4,0.4,0.8,0.5,1.2c0.2,0,0.2-0.1,0.4-0.1C145.5,119.3,145.2,118.9,144.9,118.5z"/>
	<path class="st0" d="M113.7,140.5c7.6-10.3,18.7-17.9,31.8-20.7c-0.2-0.4-0.4-0.8-0.5-1.2c-2.8-3.4-5.1-7.2-6.9-11.3
		c-10.4-13.2-26.6-21.8-44.8-21.8c-2.8,0-5.5,0.2-8.2,0.6c-0.9,3.7-1.5,7.5-1.5,11.5C83.5,117.3,96.2,134.1,113.7,140.5z"/>
	<path class="st0" d="M113.7,140.5c7.6-10.3,18.7-17.9,31.8-20.7c-0.2-0.4-0.4-0.8-0.5-1.2c-2.8-3.4-5.1-7.2-6.9-11.3
		c-10.4-13.2-26.6-21.8-44.8-21.8c-2.8,0-5.5,0.2-8.2,0.6c-0.9,3.7-1.5,7.5-1.5,11.5C83.5,117.3,96.2,134.1,113.7,140.5z"/>
	<path class="st0" d="M145.8,119.7c-0.2,0-0.2,0.1-0.4,0.1c2.4,5.7,4.1,11.9,4.5,18.4c3.6-1.8,7-4.1,9.9-6.9
		C154.5,128.2,149.8,124.3,145.8,119.7z"/>
	<path class="st0" d="M145.8,119.7c-0.2,0-0.2,0.1-0.4,0.1c2.4,5.7,4.1,11.9,4.5,18.4c3.6-1.8,7-4.1,9.9-6.9
		C154.5,128.2,149.8,124.3,145.8,119.7z"/>
	<path class="st0" d="M113.7,140.5c4.8,1.8,10,2.7,15.5,2.7c7.5,0,14.5-1.8,20.7-5c-0.5-6.5-2.1-12.7-4.5-18.4
		C132.5,122.6,121.3,130.1,113.7,140.5z"/>
	<path class="st0" d="M113.7,140.5c4.8,1.8,10,2.7,15.5,2.7c7.5,0,14.5-1.8,20.7-5c-0.5-6.5-2.1-12.7-4.5-18.4
		C132.5,122.6,121.3,130.1,113.7,140.5z"/>
	<path class="st0" d="M113.7,140.5c4.8,1.8,10,2.7,15.5,2.7c7.5,0,14.5-1.8,20.7-5c-0.5-6.5-2.1-12.7-4.5-18.4
		C132.5,122.6,121.3,130.1,113.7,140.5z"/>
	<path class="st0" d="M214.5,204.4c-4.6-0.2-9-1-13.2-2.3c-6.8,9.9-16.8,17.5-28.6,21.2c7.6,14.6,22.9,24.6,40.5,24.6
		c5.4,0,10.6-0.9,15.4-2.7c-8.7-10-14.1-23.1-14.1-37.4C214.5,206.6,214.5,205.4,214.5,204.4z"/>
	<path class="st0" d="M201.3,202.1c-11.8-3.7-21.7-11.4-28.3-21.5c-3.4,6.4-5.4,13.8-5.4,21.7c0,7.6,1.8,14.8,5.1,21
		C184.5,219.6,194.6,212,201.3,202.1z"/>
	<path class="st0" d="M201.3,202.1c-11.8-3.7-21.7-11.4-28.3-21.5c-3.4,6.4-5.4,13.8-5.4,21.7c0,7.6,1.8,14.8,5.1,21
		C184.5,219.6,194.6,212,201.3,202.1z"/>
	<path class="st0" d="M238.1,85.8c0,6-1,11.8-2.9,17.2c0.7,0.2,1.3,0.5,1.9,0.8c7.1-20,26.2-34.4,48.7-34.4c0.5,0,1.1,0,1.7,0.1
		C281,52,264.3,39.6,244.6,39.6c-8.9,0-17.2,2.5-24.3,7C231.2,56.1,238.1,70.1,238.1,85.8z"/>
	<path class="st0" d="M237.2,103.7c11,4.6,20.1,12.9,25.8,23.3c16.1-7,27.3-23.1,27.3-41.8c0-5.5-1-10.9-2.8-15.8
		c-0.5,0-1.1-0.1-1.7-0.1C263.4,69.4,244.2,83.7,237.2,103.7z"/>
	<path class="st0" d="M237.2,103.7c11,4.6,20.1,12.9,25.8,23.3c16.1-7,27.3-23.1,27.3-41.8c0-5.5-1-10.9-2.8-15.8
		c-0.5,0-1.1-0.1-1.7-0.1C263.4,69.4,244.2,83.7,237.2,103.7z"/>
	<path class="st0" d="M337.4,122.4c-0.5,19.1-11.3,35.6-27.2,44.1c10.9,10.3,17.8,25,17.8,41.2c0,1.5-0.1,2.8-0.2,4.2
		c21.7-4.2,38-23.3,38-46.3C365.9,146.3,354.2,129.6,337.4,122.4z"/>
	<path class="st0" d="M274,151c14,0.7,26.7,6.4,36.3,15.5c15.8-8.5,26.6-25,27.2-44.1c-5.7-2.4-12-3.8-18.6-3.8
		C297.9,118.6,280.1,132.2,274,151z"/>
	<path class="st0" d="M274,151c14,0.7,26.7,6.4,36.3,15.5c15.8-8.5,26.6-25,27.2-44.1c-5.7-2.4-12-3.8-18.6-3.8
		C297.9,118.6,280.1,132.2,274,151z"/>
	<path class="st0" d="M174.8,97.5c0,8.1-2.1,15.7-5.8,22.3c1.8,0.5,3.7,0.9,5.4,1.5c6.7-9.3,16.4-16.3,27.6-19.6
		c-2-5.1-3.1-10.7-3.1-16.6c0-16.3,8.6-30.6,21.4-38.6c-9.3-8.2-21.3-13.1-34.7-13.1c-17.1,0-32.3,8.2-41.9,20.9
		C161.9,60.4,174.8,77.5,174.8,97.5z"/>
	<path class="st0" d="M169,119.8c-2.4,4.3-5.5,8.2-9.1,11.5c2.4,1.4,4.9,2.6,7.6,3.5c1.7-4.8,4.1-9.3,7-13.5
		C172.7,120.8,170.8,120.3,169,119.8z"/>
	<path class="st0" d="M169,119.8c-2.4,4.3-5.5,8.2-9.1,11.5c2.4,1.4,4.9,2.6,7.6,3.5c1.7-4.8,4.1-9.3,7-13.5
		C172.7,120.8,170.8,120.3,169,119.8z"/>
	<path class="st0" d="M138,107.3c2.8,3.4,5.1,7.3,6.9,11.3c0.3,0.4,0.6,0.8,0.9,1.1c3.6-0.8,7.3-1.1,11.2-1.1c4.1,0,8.2,0.5,12,1.4
		c3.7-6.6,5.8-14.2,5.8-22.3c0-20-12.9-37.1-30.9-43.2c-6.6,8.7-10.5,19.7-10.5,31.5C133.4,93.4,135,100.7,138,107.3z"/>
	<path class="st0" d="M138,107.3c2.8,3.4,5.1,7.3,6.9,11.3c0.3,0.4,0.6,0.8,0.9,1.1c3.6-0.8,7.3-1.1,11.2-1.1c4.1,0,8.2,0.5,12,1.4
		c3.7-6.6,5.8-14.2,5.8-22.3c0-20-12.9-37.1-30.9-43.2c-6.6,8.7-10.5,19.7-10.5,31.5C133.4,93.4,135,100.7,138,107.3z"/>
	<path class="st0" d="M144.9,118.5c-1.8-4.1-4.2-7.8-6.9-11.3C139.8,111.3,142.1,115.1,144.9,118.5z"/>
	<path class="st0" d="M144.9,118.5c-1.8-4.1-4.2-7.8-6.9-11.3C139.8,111.3,142.1,115.1,144.9,118.5z"/>
	<path class="st0" d="M144.9,118.5c-1.8-4.1-4.2-7.8-6.9-11.3C139.8,111.3,142.1,115.1,144.9,118.5z"/>
	<path class="st0" d="M169,119.8c-3.9-0.9-7.9-1.4-12-1.4c-3.8,0-7.6,0.4-11.2,1.1c4,4.7,8.7,8.6,14.1,11.7
		C163.5,128,166.6,124.2,169,119.8z"/>
	<path class="st0" d="M169,119.8c-3.9-0.9-7.9-1.4-12-1.4c-3.8,0-7.6,0.4-11.2,1.1c4,4.7,8.7,8.6,14.1,11.7
		C163.5,128,166.6,124.2,169,119.8z"/>
	<path class="st0" d="M169,119.8c-3.9-0.9-7.9-1.4-12-1.4c-3.8,0-7.6,0.4-11.2,1.1c4,4.7,8.7,8.6,14.1,11.7
		C163.5,128,166.6,124.2,169,119.8z"/>
	<path class="st0" d="M199,85.2c0,5.9,1.1,11.5,3.1,16.6c4.7-1.4,9.6-2.1,14.8-2.1c6.4,0,12.6,1.1,18.3,3.3
		c1.8-5.4,2.9-11.2,2.9-17.2c0-15.6-6.9-29.6-17.8-39.3C207.6,54.6,199,68.9,199,85.2z"/>
	<path class="st0" d="M199,85.2c0,5.9,1.1,11.5,3.1,16.6c4.7-1.4,9.6-2.1,14.8-2.1c6.4,0,12.6,1.1,18.3,3.3
		c1.8-5.4,2.9-11.2,2.9-17.2c0-15.6-6.9-29.6-17.8-39.3C207.6,54.6,199,68.9,199,85.2z"/>
	<path class="st0" d="M221.1,124.3c-6.6,6-14.8,10.4-23.8,12.5c5,5.7,8.8,12.5,10.9,20c1.6-0.2,3.2-0.2,4.9-0.2
		c8.5,0,16.5,2.3,23.3,6.4c3.5-2.8,7.3-5.1,11.4-6.9c-6.6-7.2-11.2-16.1-12.9-26.2C230,128.8,225.3,126.8,221.1,124.3z"/>
	<path class="st0" d="M235,129.8c1.7,10,6.4,19.1,12.9,26.2c6.6-3,13.8-4.7,21.3-5c-0.2-8.6-2.4-16.8-6.4-24
		c-5.6,2.4-11.8,3.8-18.3,3.8C241.3,130.8,238,130.5,235,129.8z"/>
	<path class="st0" d="M235,129.8c1.7,10,6.4,19.1,12.9,26.2c6.6-3,13.8-4.7,21.3-5c-0.2-8.6-2.4-16.8-6.4-24
		c-5.6,2.4-11.8,3.8-18.3,3.8C241.3,130.8,238,130.5,235,129.8z"/>
	<path class="st0" d="M208.3,156.8c-2.2-7.4-6-14.2-10.9-20c-3.7,0.8-7.6,1.3-11.6,1.3c-6.4,0-12.6-1.1-18.3-3.3
		c-1.8,5.4-2.9,11.2-2.9,17.2c0,10.5,3.1,20.3,8.4,28.5C179.9,167.6,193,158.4,208.3,156.8z"/>
	<path class="st0" d="M208.3,156.8c-2.2-7.4-6-14.2-10.9-20c-3.7,0.8-7.6,1.3-11.6,1.3c-6.4,0-12.6-1.1-18.3-3.3
		c-1.8,5.4-2.9,11.2-2.9,17.2c0,10.5,3.1,20.3,8.4,28.5C179.9,167.6,193,158.4,208.3,156.8z"/>
	<path class="st0" d="M236.4,162.9c-6.8-4.1-14.8-6.4-23.3-6.4c-1.7,0-3.3,0.1-4.9,0.2c1.5,4.8,2.2,9.9,2.2,15.2
		c0,11.1-3.4,21.5-9.2,30c4.2,1.3,8.6,2.1,13.2,2.3C215.5,187.5,223.9,172.6,236.4,162.9z"/>
	<path class="st0" d="M236.4,162.9c-6.8-4.1-14.8-6.4-23.3-6.4c-1.7,0-3.3,0.1-4.9,0.2c1.5,4.8,2.2,9.9,2.2,15.2
		c0,11.1-3.4,21.5-9.2,30c4.2,1.3,8.6,2.1,13.2,2.3C215.5,187.5,223.9,172.6,236.4,162.9z"/>
	<path class="st0" d="M208.3,156.8c-15.3,1.6-28.3,10.8-35.4,23.7c6.6,10.1,16.5,17.8,28.3,21.5c5.8-8.6,9.2-18.9,9.2-30
		C210.5,166.7,209.7,161.6,208.3,156.8z"/>
	<path class="st0" d="M208.3,156.8c-15.3,1.6-28.3,10.8-35.4,23.7c6.6,10.1,16.5,17.8,28.3,21.5c5.8-8.6,9.2-18.9,9.2-30
		C210.5,166.7,209.7,161.6,208.3,156.8z"/>
	<path class="st0" d="M208.3,156.8c-15.3,1.6-28.3,10.8-35.4,23.7c6.6,10.1,16.5,17.8,28.3,21.5c5.8-8.6,9.2-18.9,9.2-30
		C210.5,166.7,209.7,161.6,208.3,156.8z"/>
	<path class="st0" d="M221.1,124.3c4.2,2.5,8.9,4.4,13.8,5.4c-0.5-2.8-0.8-5.8-0.8-8.8c0-6,1.1-11.9,3-17.3
		c-0.6-0.3-1.3-0.5-1.9-0.8C232.4,111.2,227.5,118.6,221.1,124.3z"/>
	<path class="st0" d="M221.1,124.3c4.2,2.5,8.9,4.4,13.8,5.4c-0.5-2.8-0.8-5.8-0.8-8.8c0-6,1.1-11.9,3-17.3
		c-0.6-0.3-1.3-0.5-1.9-0.8C232.4,111.2,227.5,118.6,221.1,124.3z"/>
	<path class="st0" d="M235,129.8c3.1,0.7,6.4,1.1,9.6,1.1c6.5,0,12.7-1.4,18.3-3.8c-5.7-10.4-14.8-18.7-25.8-23.3
		c-1.9,5.4-3,11.2-3,17.3C234.2,124,234.4,126.9,235,129.8z"/>
	<path class="st0" d="M235,129.8c3.1,0.7,6.4,1.1,9.6,1.1c6.5,0,12.7-1.4,18.3-3.8c-5.7-10.4-14.8-18.7-25.8-23.3
		c-1.9,5.4-3,11.2-3,17.3C234.2,124,234.4,126.9,235,129.8z"/>
	<path class="st0" d="M235,129.8c3.1,0.7,6.4,1.1,9.6,1.1c6.5,0,12.7-1.4,18.3-3.8c-5.7-10.4-14.8-18.7-25.8-23.3
		c-1.9,5.4-3,11.2-3,17.3C234.2,124,234.4,126.9,235,129.8z"/>
	<path class="st0" d="M197.3,136.9c9-2.1,17.2-6.4,23.8-12.5c-8.6-5.2-15.4-13.1-19.1-22.6c-11.2,3.3-21,10.3-27.6,19.6
		C183.4,124.5,191.3,129.8,197.3,136.9z"/>
	<path class="st0" d="M197.3,136.9c9-2.1,17.2-6.4,23.8-12.5c-8.6-5.2-15.4-13.1-19.1-22.6c-11.2,3.3-21,10.3-27.6,19.6
		C183.4,124.5,191.3,129.8,197.3,136.9z"/>
	<path class="st0" d="M197.3,136.9c-6.1-7-13.9-12.4-22.9-15.5c-3,4.1-5.4,8.6-7,13.5c5.7,2.1,11.9,3.3,18.3,3.3
		C189.7,138.2,193.6,137.7,197.3,136.9z"/>
	<path class="st0" d="M197.3,136.9c-6.1-7-13.9-12.4-22.9-15.5c-3,4.1-5.4,8.6-7,13.5c5.7,2.1,11.9,3.3,18.3,3.3
		C189.7,138.2,193.6,137.7,197.3,136.9z"/>
	<path class="st0" d="M197.3,136.9c-6.1-7-13.9-12.4-22.9-15.5c-3,4.1-5.4,8.6-7,13.5c5.7,2.1,11.9,3.3,18.3,3.3
		C189.7,138.2,193.6,137.7,197.3,136.9z"/>
	<path class="st0" d="M221.1,124.3c6.3-5.8,11.2-13.1,14.1-21.3c-5.7-2.1-11.9-3.3-18.3-3.3c-5.1,0-10.1,0.8-14.8,2.1
		C205.8,111.2,212.5,119.2,221.1,124.3z"/>
	<path class="st0" d="M221.1,124.3c6.3-5.8,11.2-13.1,14.1-21.3c-5.7-2.1-11.9-3.3-18.3-3.3c-5.1,0-10.1,0.8-14.8,2.1
		C205.8,111.2,212.5,119.2,221.1,124.3z"/>
	<path class="st0" d="M221.1,124.3c6.3-5.8,11.2-13.1,14.1-21.3c-5.7-2.1-11.9-3.3-18.3-3.3c-5.1,0-10.1,0.8-14.8,2.1
		C205.8,111.2,212.5,119.2,221.1,124.3z"/>
	<path class="st0" d="M271.9,170.7c-1.8-0.5-3.7-1.1-5.4-1.8c-2.2,6.7-5.8,12.7-10.3,17.8c1.8,4.8,2.7,10,2.7,15.5
		c0,19.8-12.6,36.7-30.3,43c0.4,0.4,0.7,0.8,1.1,1.2l0,0c20,23.2,50.7,39,80,37.2c-16.7-4.3-27.1-12.5-33.1-19.3
		c27.5-2.6,49.2-24.7,51.3-52.3c-2.9,0.5-6,0.9-9.1,0.9C294.4,212.9,274.4,194.4,271.9,170.7z"/>
	<path class="st0" d="M274,151c-0.9-0.1-1.8-0.1-2.8-0.1c-0.7,0-1.3,0-2,0.1c0,0.3,0,0.7,0,1c0,5.9-1,11.6-2.8,16.8
		c1.8,0.7,3.6,1.3,5.4,1.8c-0.2-1.6-0.2-3.3-0.2-5C271.6,160.6,272.5,155.7,274,151z"/>
	<path class="st0" d="M274,151c-0.9-0.1-1.8-0.1-2.8-0.1c-0.7,0-1.3,0-2,0.1c0,0.3,0,0.7,0,1c0,5.9-1,11.6-2.8,16.8
		c1.8,0.7,3.6,1.3,5.4,1.8c-0.2-1.6-0.2-3.3-0.2-5C271.6,160.6,272.5,155.7,274,151z"/>
	<path class="st0" d="M258.8,202.1c0-5.4-0.9-10.6-2.7-15.5c-9.6,10.9-23.6,17.7-39.3,17.7c-0.8,0-1.5,0-2.3-0.1
		c-0.1,1.1-0.1,2.3-0.1,3.4c0,14.3,5.4,27.4,14.1,37.4C246.2,238.8,258.8,222,258.8,202.1z"/>
	<path class="st0" d="M258.8,202.1c0-5.4-0.9-10.6-2.7-15.5c-9.6,10.9-23.6,17.7-39.3,17.7c-0.8,0-1.5,0-2.3-0.1
		c-0.1,1.1-0.1,2.3-0.1,3.4c0,14.3,5.4,27.4,14.1,37.4C246.2,238.8,258.8,222,258.8,202.1z"/>
	<path class="st0" d="M310.3,166.5c-7.3,3.9-15.6,6.1-24.4,6.1c-4.8,0-9.5-0.7-13.9-1.9c2.5,23.7,22.5,42.2,46.9,42.2
		c3.1,0,6.1-0.3,9.1-0.9c0.1-1.4,0.2-2.8,0.2-4.2C328,191.5,321.2,176.8,310.3,166.5z"/>
	<path class="st0" d="M310.3,166.5c-7.3,3.9-15.6,6.1-24.4,6.1c-4.8,0-9.5-0.7-13.9-1.9c2.5,23.7,22.5,42.2,46.9,42.2
		c3.1,0,6.1-0.3,9.1-0.9c0.1-1.4,0.2-2.8,0.2-4.2C328,191.5,321.2,176.8,310.3,166.5z"/>
	<path class="st0" d="M271.6,165.7c0,1.7,0.1,3.4,0.2,5c4.4,1.2,9.1,1.9,13.9,1.9c8.9,0,17.1-2.2,24.4-6.1
		c-9.6-9-22.3-14.8-36.3-15.5C272.5,155.7,271.6,160.6,271.6,165.7z"/>
	<path class="st0" d="M271.6,165.7c0,1.7,0.1,3.4,0.2,5c4.4,1.2,9.1,1.9,13.9,1.9c8.9,0,17.1-2.2,24.4-6.1
		c-9.6-9-22.3-14.8-36.3-15.5C272.5,155.7,271.6,160.6,271.6,165.7z"/>
	<path class="st0" d="M271.6,165.7c0,1.7,0.1,3.4,0.2,5c4.4,1.2,9.1,1.9,13.9,1.9c8.9,0,17.1-2.2,24.4-6.1
		c-9.6-9-22.3-14.8-36.3-15.5C272.5,155.7,271.6,160.6,271.6,165.7z"/>
	<path class="st0" d="M247.8,156c-4.1,1.8-7.9,4.1-11.4,6.9c9,5.4,16.1,13.8,19.7,23.8c4.5-5.1,8.1-11.2,10.3-17.8
		C259.4,166,253,161.6,247.8,156z"/>
	<path class="st0" d="M247.8,156c-4.1,1.8-7.9,4.1-11.4,6.9c9,5.4,16.1,13.8,19.7,23.8c4.5-5.1,8.1-11.2,10.3-17.8
		C259.4,166,253,161.6,247.8,156z"/>
	<path class="st0" d="M269.2,151c-7.6,0.2-14.8,2-21.3,5c5.1,5.6,11.5,10,18.6,12.9c1.8-5.3,2.8-10.9,2.8-16.8
		C269.2,151.7,269.2,151.3,269.2,151z"/>
	<path class="st0" d="M269.2,151c-7.6,0.2-14.8,2-21.3,5c5.1,5.6,11.5,10,18.6,12.9c1.8-5.3,2.8-10.9,2.8-16.8
		C269.2,151.7,269.2,151.3,269.2,151z"/>
	<path class="st0" d="M269.2,151c-7.6,0.2-14.8,2-21.3,5c5.1,5.6,11.5,10,18.6,12.9c1.8-5.3,2.8-10.9,2.8-16.8
		C269.2,151.7,269.2,151.3,269.2,151z"/>
	<path class="st0" d="M236.4,162.9c-12.5,9.7-20.9,24.6-21.9,41.5c0.8,0,1.5,0.1,2.3,0.1c15.6,0,29.6-6.8,39.3-17.7
		C252.5,176.7,245.5,168.2,236.4,162.9z"/>
	<path class="st0" d="M236.4,162.9c-12.5,9.7-20.9,24.6-21.9,41.5c0.8,0,1.5,0.1,2.3,0.1c15.6,0,29.6-6.8,39.3-17.7
		C252.5,176.7,245.5,168.2,236.4,162.9z"/>
	<path class="st0" d="M236.4,162.9c-12.5,9.7-20.9,24.6-21.9,41.5c0.8,0,1.5,0.1,2.3,0.1c15.6,0,29.6-6.8,39.3-17.7
		C252.5,176.7,245.5,168.2,236.4,162.9z"/>
</g>
<g>
	<path class="st1" d="M113.7,140.5c-17.6-6.4-30.1-23.2-30.1-42.9c0-4,0.5-7.8,1.5-11.5c-27.6,4-48.8,27.7-48.8,56.4
		c0,31.5,25.5,56.9,56.9,56.9c5.7,0,11.2-0.8,16.4-2.4c-3.9-7.4-6.1-15.9-6.1-24.9C103.4,160.2,107.2,149.3,113.7,140.5z"/>
	<path class="st2" d="M262.9,127c3.9,7.1,6.1,15.3,6.4,24c0.7,0,1.3-0.1,2-0.1c0.9,0,1.8,0,2.8,0.1c6.2-18.8,23.9-32.4,44.8-32.4
		c6.6,0,12.9,1.4,18.6,3.8c0-0.5,0-0.9,0-1.4c0-27.9-22.2-50.7-50-51.6c1.8,4.9,2.8,10.3,2.8,15.8C290.3,103.9,279,120,262.9,127z"
		/>
	<path class="st3" d="M173,180.6c-5.4-8.2-8.4-18-8.4-28.5c0-6,1-11.8,2.9-17.2c-2.6-1-5.1-2.1-7.6-3.5c-3,2.7-6.3,5-9.9,6.9
		c0.1,1.4,0.2,2.8,0.2,4.2c0,25.8-17.1,47.5-40.6,54.6c9,17,26.8,28.6,47.4,28.6c5.4,0,10.7-0.8,15.7-2.4c-3.3-6.3-5.1-13.5-5.1-21
		C167.5,194.3,169.5,187,173,180.6z"/>
	<path class="st1" d="M150.1,142.4c0-1.5-0.1-2.8-0.2-4.2c-6.2,3.2-13.3,5-20.7,5c-5.4,0-10.6-0.9-15.5-2.7
		c-6.4,8.9-10.3,19.7-10.3,31.5c0,9,2.2,17.4,6.1,24.9C133,189.9,150.1,168.2,150.1,142.4z"/>
	<path class="st4" d="M150.1,142.4c0-1.5-0.1-2.8-0.2-4.2c-6.2,3.2-13.3,5-20.7,5c-5.4,0-10.6-0.9-15.5-2.7
		c-6.4,8.9-10.3,19.7-10.3,31.5c0,9,2.2,17.4,6.1,24.9C133,189.9,150.1,168.2,150.1,142.4z"/>
	<path class="st5" d="M138,107.3c-3-6.6-4.6-13.8-4.6-21.4c0-11.8,3.9-22.7,10.5-31.5c-4.6-1.6-9.6-2.4-14.7-2.4
		c-21.2,0-39.1,14.5-44.2,34.1c2.7-0.4,5.4-0.6,8.2-0.6C111.4,85.4,127.5,93.9,138,107.3z"/>
	<path class="st5" d="M144.9,118.5c0.2,0.4,0.4,0.8,0.5,1.2c0.2,0,0.2-0.1,0.4-0.1C145.5,119.3,145.2,118.9,144.9,118.5z"/>
	<path class="st1" d="M113.7,140.5c7.6-10.3,18.7-17.9,31.8-20.7c-0.2-0.4-0.4-0.8-0.5-1.2c-2.8-3.4-5.1-7.2-6.9-11.3
		c-10.4-13.2-26.6-21.8-44.8-21.8c-2.8,0-5.5,0.2-8.2,0.6c-0.9,3.7-1.5,7.5-1.5,11.5C83.5,117.3,96.2,134.1,113.7,140.5z"/>
	<path class="st6" d="M113.7,140.5c7.6-10.3,18.7-17.9,31.8-20.7c-0.2-0.4-0.4-0.8-0.5-1.2c-2.8-3.4-5.1-7.2-6.9-11.3
		c-10.4-13.2-26.6-21.8-44.8-21.8c-2.8,0-5.5,0.2-8.2,0.6c-0.9,3.7-1.5,7.5-1.5,11.5C83.5,117.3,96.2,134.1,113.7,140.5z"/>
	<path class="st3" d="M145.8,119.7c-0.2,0-0.2,0.1-0.4,0.1c2.4,5.7,4.1,11.9,4.5,18.4c3.6-1.8,7-4.1,9.9-6.9
		C154.5,128.2,149.8,124.3,145.8,119.7z"/>
	<path class="st7" d="M145.8,119.7c-0.2,0-0.2,0.1-0.4,0.1c2.4,5.7,4.1,11.9,4.5,18.4c3.6-1.8,7-4.1,9.9-6.9
		C154.5,128.2,149.8,124.3,145.8,119.7z"/>
	<path class="st1" d="M113.7,140.5c4.8,1.8,10,2.7,15.5,2.7c7.5,0,14.5-1.8,20.7-5c-0.5-6.5-2.1-12.7-4.5-18.4
		C132.5,122.6,121.3,130.1,113.7,140.5z"/>
	<path class="st3" d="M113.7,140.5c4.8,1.8,10,2.7,15.5,2.7c7.5,0,14.5-1.8,20.7-5c-0.5-6.5-2.1-12.7-4.5-18.4
		C132.5,122.6,121.3,130.1,113.7,140.5z"/>
	<path class="st8" d="M113.7,140.5c4.8,1.8,10,2.7,15.5,2.7c7.5,0,14.5-1.8,20.7-5c-0.5-6.5-2.1-12.7-4.5-18.4
		C132.5,122.6,121.3,130.1,113.7,140.5z"/>
	<path class="st9" d="M214.5,204.4c-4.6-0.2-9-1-13.2-2.3c-6.8,9.9-16.8,17.5-28.6,21.2c7.6,14.6,22.9,24.6,40.5,24.6
		c5.4,0,10.6-0.9,15.4-2.7c-8.7-10-14.1-23.1-14.1-37.4C214.5,206.6,214.5,205.4,214.5,204.4z"/>
	<path class="st3" d="M201.3,202.1c-11.8-3.7-21.7-11.4-28.3-21.5c-3.4,6.4-5.4,13.8-5.4,21.7c0,7.6,1.8,14.8,5.1,21
		C184.5,219.6,194.6,212,201.3,202.1z"/>
	<path class="st10" d="M201.3,202.1c-11.8-3.7-21.7-11.4-28.3-21.5c-3.4,6.4-5.4,13.8-5.4,21.7c0,7.6,1.8,14.8,5.1,21
		C184.5,219.6,194.6,212,201.3,202.1z"/>
	<path class="st11" d="M238.1,85.8c0,6-1,11.8-2.9,17.2c0.7,0.2,1.3,0.5,1.9,0.8c7.1-20,26.2-34.4,48.7-34.4c0.5,0,1.1,0,1.7,0.1
		C281,52,264.3,39.6,244.6,39.6c-8.9,0-17.2,2.5-24.3,7C231.2,56.1,238.1,70.1,238.1,85.8z"/>
	<path class="st2" d="M237.2,103.7c11,4.6,20.1,12.9,25.8,23.3c16.1-7,27.3-23.1,27.3-41.8c0-5.5-1-10.9-2.8-15.8
		c-0.5,0-1.1-0.1-1.7-0.1C263.4,69.4,244.2,83.7,237.2,103.7z"/>
	<path class="st12" d="M237.2,103.7c11,4.6,20.1,12.9,25.8,23.3c16.1-7,27.3-23.1,27.3-41.8c0-5.5-1-10.9-2.8-15.8
		c-0.5,0-1.1-0.1-1.7-0.1C263.4,69.4,244.2,83.7,237.2,103.7z"/>
	<path class="st13" d="M337.4,122.4c-0.5,19.1-11.3,35.6-27.2,44.1c10.9,10.3,17.8,25,17.8,41.2c0,1.5-0.1,2.8-0.2,4.2
		c21.7-4.2,38-23.3,38-46.3C365.9,146.3,354.2,129.6,337.4,122.4z"/>
	<path class="st2" d="M274,151c14,0.7,26.7,6.4,36.3,15.5c15.8-8.5,26.6-25,27.2-44.1c-5.7-2.4-12-3.8-18.6-3.8
		C297.9,118.6,280.1,132.2,274,151z"/>
	<path class="st14" d="M274,151c14,0.7,26.7,6.4,36.3,15.5c15.8-8.5,26.6-25,27.2-44.1c-5.7-2.4-12-3.8-18.6-3.8
		C297.9,118.6,280.1,132.2,274,151z"/>
	<path class="st15" d="M174.8,97.5c0,8.1-2.1,15.7-5.8,22.3c1.8,0.5,3.7,0.9,5.4,1.5c6.7-9.3,16.4-16.3,27.6-19.6
		c-2-5.1-3.1-10.7-3.1-16.6c0-16.3,8.6-30.6,21.4-38.6c-9.3-8.2-21.3-13.1-34.7-13.1c-17.1,0-32.3,8.2-41.9,20.9
		C161.9,60.4,174.8,77.5,174.8,97.5z"/>
	<path class="st3" d="M169,119.8c-2.4,4.3-5.5,8.2-9.1,11.5c2.4,1.4,4.9,2.6,7.6,3.5c1.7-4.8,4.1-9.3,7-13.5
		C172.7,120.8,170.8,120.3,169,119.8z"/>
	<path class="st16" d="M169,119.8c-2.4,4.3-5.5,8.2-9.1,11.5c2.4,1.4,4.9,2.6,7.6,3.5c1.7-4.8,4.1-9.3,7-13.5
		C172.7,120.8,170.8,120.3,169,119.8z"/>
	<path class="st5" d="M138,107.3c2.8,3.4,5.1,7.3,6.9,11.3c0.3,0.4,0.6,0.8,0.9,1.1c3.6-0.8,7.3-1.1,11.2-1.1c4.1,0,8.2,0.5,12,1.4
		c3.7-6.6,5.8-14.2,5.8-22.3c0-20-12.9-37.1-30.9-43.2c-6.6,8.7-10.5,19.7-10.5,31.5C133.4,93.4,135,100.7,138,107.3z"/>
	<path class="st17" d="M138,107.3c2.8,3.4,5.1,7.3,6.9,11.3c0.3,0.4,0.6,0.8,0.9,1.1c3.6-0.8,7.3-1.1,11.2-1.1c4.1,0,8.2,0.5,12,1.4
		c3.7-6.6,5.8-14.2,5.8-22.3c0-20-12.9-37.1-30.9-43.2c-6.6,8.7-10.5,19.7-10.5,31.5C133.4,93.4,135,100.7,138,107.3z"/>
	<path class="st1" d="M144.9,118.5c-1.8-4.1-4.2-7.8-6.9-11.3C139.8,111.3,142.1,115.1,144.9,118.5z"/>
	<path class="st5" d="M144.9,118.5c-1.8-4.1-4.2-7.8-6.9-11.3C139.8,111.3,142.1,115.1,144.9,118.5z"/>
	<path class="st18" d="M144.9,118.5c-1.8-4.1-4.2-7.8-6.9-11.3C139.8,111.3,142.1,115.1,144.9,118.5z"/>
	<path class="st3" d="M169,119.8c-3.9-0.9-7.9-1.4-12-1.4c-3.8,0-7.6,0.4-11.2,1.1c4,4.7,8.7,8.6,14.1,11.7
		C163.5,128,166.6,124.2,169,119.8z"/>
	<path class="st5" d="M169,119.8c-3.9-0.9-7.9-1.4-12-1.4c-3.8,0-7.6,0.4-11.2,1.1c4,4.7,8.7,8.6,14.1,11.7
		C163.5,128,166.6,124.2,169,119.8z"/>
	<path class="st19" d="M169,119.8c-3.9-0.9-7.9-1.4-12-1.4c-3.8,0-7.6,0.4-11.2,1.1c4,4.7,8.7,8.6,14.1,11.7
		C163.5,128,166.6,124.2,169,119.8z"/>
	<path class="st11" d="M199,85.2c0,5.9,1.1,11.5,3.1,16.6c4.7-1.4,9.6-2.1,14.8-2.1c6.4,0,12.6,1.1,18.3,3.3
		c1.8-5.4,2.9-11.2,2.9-17.2c0-15.6-6.9-29.6-17.8-39.3C207.6,54.6,199,68.9,199,85.2z"/>
	<path class="st20" d="M199,85.2c0,5.9,1.1,11.5,3.1,16.6c4.7-1.4,9.6-2.1,14.8-2.1c6.4,0,12.6,1.1,18.3,3.3
		c1.8-5.4,2.9-11.2,2.9-17.2c0-15.6-6.9-29.6-17.8-39.3C207.6,54.6,199,68.9,199,85.2z"/>
	<path class="st21" d="M221.1,124.3c-6.6,6-14.8,10.4-23.8,12.5c5,5.7,8.8,12.5,10.9,20c1.6-0.2,3.2-0.2,4.9-0.2
		c8.5,0,16.5,2.3,23.3,6.4c3.5-2.8,7.3-5.1,11.4-6.9c-6.6-7.2-11.2-16.1-12.9-26.2C230,128.8,225.3,126.8,221.1,124.3z"/>
	<path class="st2" d="M235,129.8c1.7,10,6.4,19.1,12.9,26.2c6.6-3,13.8-4.7,21.3-5c-0.2-8.6-2.4-16.8-6.4-24
		c-5.6,2.4-11.8,3.8-18.3,3.8C241.3,130.8,238,130.5,235,129.8z"/>
	<path class="st22" d="M235,129.8c1.7,10,6.4,19.1,12.9,26.2c6.6-3,13.8-4.7,21.3-5c-0.2-8.6-2.4-16.8-6.4-24
		c-5.6,2.4-11.8,3.8-18.3,3.8C241.3,130.8,238,130.5,235,129.8z"/>
	<path class="st3" d="M208.3,156.8c-2.2-7.4-6-14.2-10.9-20c-3.7,0.8-7.6,1.3-11.6,1.3c-6.4,0-12.6-1.1-18.3-3.3
		c-1.8,5.4-2.9,11.2-2.9,17.2c0,10.5,3.1,20.3,8.4,28.5C179.9,167.6,193,158.4,208.3,156.8z"/>
	<path class="st23" d="M208.3,156.8c-2.2-7.4-6-14.2-10.9-20c-3.7,0.8-7.6,1.3-11.6,1.3c-6.4,0-12.6-1.1-18.3-3.3
		c-1.8,5.4-2.9,11.2-2.9,17.2c0,10.5,3.1,20.3,8.4,28.5C179.9,167.6,193,158.4,208.3,156.8z"/>
	<path class="st9" d="M236.4,162.9c-6.8-4.1-14.8-6.4-23.3-6.4c-1.7,0-3.3,0.1-4.9,0.2c1.5,4.8,2.2,9.9,2.2,15.2
		c0,11.1-3.4,21.5-9.2,30c4.2,1.3,8.6,2.1,13.2,2.3C215.5,187.5,223.9,172.6,236.4,162.9z"/>
	<path class="st24" d="M236.4,162.9c-6.8-4.1-14.8-6.4-23.3-6.4c-1.7,0-3.3,0.1-4.9,0.2c1.5,4.8,2.2,9.9,2.2,15.2
		c0,11.1-3.4,21.5-9.2,30c4.2,1.3,8.6,2.1,13.2,2.3C215.5,187.5,223.9,172.6,236.4,162.9z"/>
	<path class="st3" d="M208.3,156.8c-15.3,1.6-28.3,10.8-35.4,23.7c6.6,10.1,16.5,17.8,28.3,21.5c5.8-8.6,9.2-18.9,9.2-30
		C210.5,166.7,209.7,161.6,208.3,156.8z"/>
	<path class="st9" d="M208.3,156.8c-15.3,1.6-28.3,10.8-35.4,23.7c6.6,10.1,16.5,17.8,28.3,21.5c5.8-8.6,9.2-18.9,9.2-30
		C210.5,166.7,209.7,161.6,208.3,156.8z"/>
	<path class="st25" d="M208.3,156.8c-15.3,1.6-28.3,10.8-35.4,23.7c6.6,10.1,16.5,17.8,28.3,21.5c5.8-8.6,9.2-18.9,9.2-30
		C210.5,166.7,209.7,161.6,208.3,156.8z"/>
	<path class="st11" d="M221.1,124.3c4.2,2.5,8.9,4.4,13.8,5.4c-0.5-2.8-0.8-5.8-0.8-8.8c0-6,1.1-11.9,3-17.3
		c-0.6-0.3-1.3-0.5-1.9-0.8C232.4,111.2,227.5,118.6,221.1,124.3z"/>
	<path class="st26" d="M221.1,124.3c4.2,2.5,8.9,4.4,13.8,5.4c-0.5-2.8-0.8-5.8-0.8-8.8c0-6,1.1-11.9,3-17.3
		c-0.6-0.3-1.3-0.5-1.9-0.8C232.4,111.2,227.5,118.6,221.1,124.3z"/>
	<path class="st2" d="M235,129.8c3.1,0.7,6.4,1.1,9.6,1.1c6.5,0,12.7-1.4,18.3-3.8c-5.7-10.4-14.8-18.7-25.8-23.3
		c-1.9,5.4-3,11.2-3,17.3C234.2,124,234.4,126.9,235,129.8z"/>
	<path class="st11" d="M235,129.8c3.1,0.7,6.4,1.1,9.6,1.1c6.5,0,12.7-1.4,18.3-3.8c-5.7-10.4-14.8-18.7-25.8-23.3
		c-1.9,5.4-3,11.2-3,17.3C234.2,124,234.4,126.9,235,129.8z"/>
	<path class="st27" d="M235,129.8c3.1,0.7,6.4,1.1,9.6,1.1c6.5,0,12.7-1.4,18.3-3.8c-5.7-10.4-14.8-18.7-25.8-23.3
		c-1.9,5.4-3,11.2-3,17.3C234.2,124,234.4,126.9,235,129.8z"/>
	<path class="st15" d="M197.3,136.9c9-2.1,17.2-6.4,23.8-12.5c-8.6-5.2-15.4-13.1-19.1-22.6c-11.2,3.3-21,10.3-27.6,19.6
		C183.4,124.5,191.3,129.8,197.3,136.9z"/>
	<path class="st28" d="M197.3,136.9c9-2.1,17.2-6.4,23.8-12.5c-8.6-5.2-15.4-13.1-19.1-22.6c-11.2,3.3-21,10.3-27.6,19.6
		C183.4,124.5,191.3,129.8,197.3,136.9z"/>
	<path class="st3" d="M197.3,136.9c-6.1-7-13.9-12.4-22.9-15.5c-3,4.1-5.4,8.6-7,13.5c5.7,2.1,11.9,3.3,18.3,3.3
		C189.7,138.2,193.6,137.7,197.3,136.9z"/>
	<path class="st15" d="M197.3,136.9c-6.1-7-13.9-12.4-22.9-15.5c-3,4.1-5.4,8.6-7,13.5c5.7,2.1,11.9,3.3,18.3,3.3
		C189.7,138.2,193.6,137.7,197.3,136.9z"/>
	<path class="st29" d="M197.3,136.9c-6.1-7-13.9-12.4-22.9-15.5c-3,4.1-5.4,8.6-7,13.5c5.7,2.1,11.9,3.3,18.3,3.3
		C189.7,138.2,193.6,137.7,197.3,136.9z"/>
	<path class="st11" d="M221.1,124.3c6.3-5.8,11.2-13.1,14.1-21.3c-5.7-2.1-11.9-3.3-18.3-3.3c-5.1,0-10.1,0.8-14.8,2.1
		C205.8,111.2,212.5,119.2,221.1,124.3z"/>
	<path class="st15" d="M221.1,124.3c6.3-5.8,11.2-13.1,14.1-21.3c-5.7-2.1-11.9-3.3-18.3-3.3c-5.1,0-10.1,0.8-14.8,2.1
		C205.8,111.2,212.5,119.2,221.1,124.3z"/>
	<path class="st30" d="M221.1,124.3c6.3-5.8,11.2-13.1,14.1-21.3c-5.7-2.1-11.9-3.3-18.3-3.3c-5.1,0-10.1,0.8-14.8,2.1
		C205.8,111.2,212.5,119.2,221.1,124.3z"/>
	<path class="st31" d="M271.9,170.7c-1.8-0.5-3.7-1.1-5.4-1.8c-2.2,6.7-5.8,12.7-10.3,17.8c1.8,4.8,2.7,10,2.7,15.5
		c0,19.8-12.6,36.7-30.3,43c0.4,0.4,0.7,0.8,1.1,1.2l0,0c20,23.2,50.7,39,80,37.2c-16.7-4.3-27.1-12.5-33.1-19.3
		c27.5-2.6,49.2-24.7,51.3-52.3c-2.9,0.5-6,0.9-9.1,0.9C294.4,212.9,274.4,194.4,271.9,170.7z"/>
	<path class="st2" d="M274,151c-0.9-0.1-1.8-0.1-2.8-0.1c-0.7,0-1.3,0-2,0.1c0,0.3,0,0.7,0,1c0,5.9-1,11.6-2.8,16.8
		c1.8,0.7,3.6,1.3,5.4,1.8c-0.2-1.6-0.2-3.3-0.2-5C271.6,160.6,272.5,155.7,274,151z"/>
	<path class="st32" d="M274,151c-0.9-0.1-1.8-0.1-2.8-0.1c-0.7,0-1.3,0-2,0.1c0,0.3,0,0.7,0,1c0,5.9-1,11.6-2.8,16.8
		c1.8,0.7,3.6,1.3,5.4,1.8c-0.2-1.6-0.2-3.3-0.2-5C271.6,160.6,272.5,155.7,274,151z"/>
	<path class="st9" d="M258.8,202.1c0-5.4-0.9-10.6-2.7-15.5c-9.6,10.9-23.6,17.7-39.3,17.7c-0.8,0-1.5,0-2.3-0.1
		c-0.1,1.1-0.1,2.3-0.1,3.4c0,14.3,5.4,27.4,14.1,37.4C246.2,238.8,258.8,222,258.8,202.1z"/>
	<path class="st33" d="M258.8,202.1c0-5.4-0.9-10.6-2.7-15.5c-9.6,10.9-23.6,17.7-39.3,17.7c-0.8,0-1.5,0-2.3-0.1
		c-0.1,1.1-0.1,2.3-0.1,3.4c0,14.3,5.4,27.4,14.1,37.4C246.2,238.8,258.8,222,258.8,202.1z"/>
	<path class="st13" d="M310.3,166.5c-7.3,3.9-15.6,6.1-24.4,6.1c-4.8,0-9.5-0.7-13.9-1.9c2.5,23.7,22.5,42.2,46.9,42.2
		c3.1,0,6.1-0.3,9.1-0.9c0.1-1.4,0.2-2.8,0.2-4.2C328,191.5,321.2,176.8,310.3,166.5z"/>
	<path class="st34" d="M310.3,166.5c-7.3,3.9-15.6,6.1-24.4,6.1c-4.8,0-9.5-0.7-13.9-1.9c2.5,23.7,22.5,42.2,46.9,42.2
		c3.1,0,6.1-0.3,9.1-0.9c0.1-1.4,0.2-2.8,0.2-4.2C328,191.5,321.2,176.8,310.3,166.5z"/>
	<path class="st2" d="M271.6,165.7c0,1.7,0.1,3.4,0.2,5c4.4,1.2,9.1,1.9,13.9,1.9c8.9,0,17.1-2.2,24.4-6.1
		c-9.6-9-22.3-14.8-36.3-15.5C272.5,155.7,271.6,160.6,271.6,165.7z"/>
	<path class="st13" d="M271.6,165.7c0,1.7,0.1,3.4,0.2,5c4.4,1.2,9.1,1.9,13.9,1.9c8.9,0,17.1-2.2,24.4-6.1
		c-9.6-9-22.3-14.8-36.3-15.5C272.5,155.7,271.6,160.6,271.6,165.7z"/>
	<path class="st35" d="M271.6,165.7c0,1.7,0.1,3.4,0.2,5c4.4,1.2,9.1,1.9,13.9,1.9c8.9,0,17.1-2.2,24.4-6.1
		c-9.6-9-22.3-14.8-36.3-15.5C272.5,155.7,271.6,160.6,271.6,165.7z"/>
	<path class="st21" d="M247.8,156c-4.1,1.8-7.9,4.1-11.4,6.9c9,5.4,16.1,13.8,19.7,23.8c4.5-5.1,8.1-11.2,10.3-17.8
		C259.4,166,253,161.6,247.8,156z"/>
	<path class="st36" d="M247.8,156c-4.1,1.8-7.9,4.1-11.4,6.9c9,5.4,16.1,13.8,19.7,23.8c4.5-5.1,8.1-11.2,10.3-17.8
		C259.4,166,253,161.6,247.8,156z"/>
	<path class="st2" d="M269.2,151c-7.6,0.2-14.8,2-21.3,5c5.1,5.6,11.5,10,18.6,12.9c1.8-5.3,2.8-10.9,2.8-16.8
		C269.2,151.7,269.2,151.3,269.2,151z"/>
	<path class="st21" d="M269.2,151c-7.6,0.2-14.8,2-21.3,5c5.1,5.6,11.5,10,18.6,12.9c1.8-5.3,2.8-10.9,2.8-16.8
		C269.2,151.7,269.2,151.3,269.2,151z"/>
	<path class="st37" d="M269.2,151c-7.6,0.2-14.8,2-21.3,5c5.1,5.6,11.5,10,18.6,12.9c1.8-5.3,2.8-10.9,2.8-16.8
		C269.2,151.7,269.2,151.3,269.2,151z"/>
	<path class="st9" d="M236.4,162.9c-12.5,9.7-20.9,24.6-21.9,41.5c0.8,0,1.5,0.1,2.3,0.1c15.6,0,29.6-6.8,39.3-17.7
		C252.5,176.7,245.5,168.2,236.4,162.9z"/>
	<path class="st21" d="M236.4,162.9c-12.5,9.7-20.9,24.6-21.9,41.5c0.8,0,1.5,0.1,2.3,0.1c15.6,0,29.6-6.8,39.3-17.7
		C252.5,176.7,245.5,168.2,236.4,162.9z"/>
	<path class="st38" d="M236.4,162.9c-12.5,9.7-20.9,24.6-21.9,41.5c0.8,0,1.5,0.1,2.3,0.1c15.6,0,29.6-6.8,39.3-17.7
		C252.5,176.7,245.5,168.2,236.4,162.9z"/>
</g>
</svg>
