<?xml version="1.0" encoding="utf-8"?>
<!-- Generator: Adobe Illustrator 27.0.0, SVG Export Plug-In . SVG Version: 6.00 Build 0)  -->
<svg version="1.1" id="Layer_1" xmlns="http://www.w3.org/2000/svg" xmlns:xlink="http://www.w3.org/1999/xlink" x="0px" y="0px"
	 viewBox="0 0 24 24" style="enable-background:new 0 0 24 24;" xml:space="preserve">
<style type="text/css">
	.st0{fill:none;}
	.st1{fill:#0092E4;}
	.st2{fill:#FFFFFF;}
</style>
<g>
	<path class="st0" d="M5.7,3.6c0,0,3.9,5.8,7.9,2s5.7-5,8.1-2.3s-5.4,8.7-5.4,8.7"/>
</g>
<g>
	<path class="st1" d="M22.4,4.3c-0.2-1.1-0.9-2-2.3-2.8c-1.9-1-3.4,0.5-4.9,2.1c-0.9,1-1.9,2-3.1,2.6c-2.9,1.5-6.3-3-6.3-3.1
		c0,0,0,0,0,0c0,0-1.1-1-2.7,0.1C2.4,3.7,2.1,4.1,2,4.6C2,5.8,3.2,7.1,5.4,9.1c0.7,0.6,1.4,1.3,2.2,2.1c0.1,0.1,0.2,0.2,0.3,0.3
		C7.9,11.6,8,11.7,8,11.8c0.2-0.2,0.4-0.3,0.6-0.5c-0.1-0.1-0.2-0.2-0.3-0.3c-0.1-0.1-0.2-0.2-0.3-0.3C7.3,10,6.6,9.2,5.9,8.6
		C4.1,6.9,2.7,5.5,2.8,4.7C2.8,4.4,3,4.2,3.3,4c0.5-0.3,0.9-0.4,1.2-0.4c0.3,0,0.5,0.1,0.6,0.2C5.5,4.2,9,8.7,12.4,7
		c1.3-0.7,2.4-1.8,3.3-2.8c1.6-1.7,2.7-2.7,4-2c1.2,0.6,1.8,1.4,2,2.2c0.1,1-0.5,2.1-1.8,3.4c-0.4,0.4-0.8,0.8-1.2,1.3
		c-0.7,0.7-1.4,1.5-2.2,2.2c-0.1,0.1-0.2,0.2-0.3,0.2c-0.1,0.1-0.2,0.2-0.3,0.2c0.2,0.2,0.4,0.4,0.5,0.5c0.1-0.1,0.2-0.2,0.3-0.2
		c0.1-0.1,0.2-0.2,0.3-0.2c0.8-0.7,1.6-1.5,2.2-2.2c0.4-0.5,0.8-0.9,1.2-1.2C22,6.9,22.6,5.6,22.4,4.3z"/>
</g>
<g>
	<path class="st2" d="M16.7,12.1c0,0-0.1-0.1-0.2-0.2c-0.1-0.1-0.2-0.2-0.4-0.4c-0.1-0.2-0.3-0.3-0.5-0.5c-2.6-2.8-5.2-1.9-7.4-0.1
		c-0.2,0.2-0.4,0.3-0.6,0.5c-1.3,1.2-2.5,2.5-3.5,3.5c-2.7,2.6-2.4,4.8,0.3,6.2c2.7,1.4,4.5-3,7.7-4.7c3.2-1.7,6.8,3.2,6.8,3.2
		s0.8,0.8,2.3-0.2C23.5,18,20.7,16.2,16.7,12.1z M21.2,19.2c-1,0.7-1.7,0.3-1.8,0.2c-0.4-0.5-3.9-5-7.3-3.2
		c-1.3,0.7-2.4,1.8-3.3,2.8c-1.6,1.7-2.7,2.7-4,2c-1.2-0.6-1.8-1.4-2-2.2c-0.1-1,0.5-2.1,1.8-3.4C5,14.9,5.4,14.5,5.8,14
		c0.7-0.7,1.4-1.5,2.2-2.2c0.2-0.2,0.4-0.3,0.6-0.5c1.2-0.9,2.4-1.6,3.7-1.6h0c1.1,0,2.2,0.5,3.2,1.7c0.2,0.2,0.3,0.3,0.4,0.5
		c0.2,0.2,0.4,0.4,0.5,0.5c0.8,0.8,1.5,1.5,2.2,2.2c1.8,1.7,3.2,3.1,3.1,3.9C21.7,18.7,21.5,18.9,21.2,19.2z"/>
	<path class="st1" d="M19.2,14c-0.7-0.6-1.4-1.3-2.2-2.1c0,0-0.1-0.1-0.1-0.1c-0.1-0.1-0.2-0.3-0.4-0.4c-0.1-0.2-0.3-0.3-0.5-0.5
		c-1.2-1.2-2.4-1.9-3.8-1.9h0c-1.5,0-2.9,0.8-4.2,1.8c-0.2,0.2-0.4,0.3-0.6,0.5C6.7,12,6,12.8,5.3,13.5C4.8,14,4.4,14.4,4,14.8
		c-1.5,1.4-2.1,2.8-2,4c0.1,1.1,0.9,2,2.3,2.8c0.4,0.2,0.8,0.3,1.2,0.3c1.3,0,2.5-1.2,3.7-2.4c1-1,1.9-2,3.1-2.6
		c2.9-1.5,6.3,3,6.3,3.1l0,0c0,0,1.1,1,2.7-0.2c0.5-0.4,0.8-0.8,0.9-1.3C22.6,17.3,21.3,16.1,19.2,14z M21.2,19.2
		c-1,0.7-1.7,0.3-1.8,0.2c-0.4-0.5-3.9-5-7.3-3.2c-1.3,0.7-2.4,1.8-3.3,2.8c-1.6,1.7-2.7,2.7-4,2c-1.2-0.6-1.8-1.4-2-2.2
		c-0.1-1,0.5-2.1,1.8-3.4C5,14.9,5.4,14.5,5.8,14c0.7-0.7,1.4-1.5,2.2-2.2c0.2-0.2,0.4-0.3,0.6-0.5c1.2-0.9,2.4-1.6,3.7-1.6h0
		c1.1,0,2.2,0.5,3.2,1.7c0.2,0.2,0.3,0.3,0.4,0.5c0.2,0.2,0.4,0.4,0.5,0.5c0.8,0.8,1.5,1.5,2.2,2.2c1.8,1.7,3.2,3.1,3.1,3.9
		C21.7,18.7,21.5,18.9,21.2,19.2z"/>
</g>
</svg>
