<?xml version="1.0" encoding="utf-8"?>
<!-- Generator: Adobe Illustrator 27.0.0, SVG Export Plug-In . SVG Version: 6.00 Build 0)  -->
<svg version="1.1" id="Layer_1" xmlns="http://www.w3.org/2000/svg" xmlns:xlink="http://www.w3.org/1999/xlink" x="0px" y="0px"
	 viewBox="0 0 24 24" style="enable-background:new 0 0 24 24;" xml:space="preserve">
<style type="text/css">
	.st0{fill:#0092E4;}
</style>
<g>
	<path class="st0" d="M12,19.6H1.2c-0.2,0-0.3-0.1-0.4-0.3C-0.3,11.5,5.1,8.6,5.2,8.6l6.2-2.5C11.6,6,11.8,6,12,6.1
		c0.2,0.1,0.3,0.3,0.3,0.5c-0.1,2,0.2,12.5,0.2,12.6c0,0.1,0,0.2-0.1,0.3C12.2,19.6,12.1,19.6,12,19.6z M1.5,18.9h10.1
		c0-1.9-0.2-9.8-0.2-12l-6,2.4C5.3,9.3,0.7,11.9,1.5,18.9z M11.5,6.4L11.5,6.4L11.5,6.4z"/>
</g>
<g>
	<path class="st0" d="M23,19.6H12.1c-0.2,0-0.4-0.2-0.4-0.4s0.2-0.4,0.4-0.4h10.5c0.1-9.6-2.9-11.5-2.9-11.5L8.8,3.1l0,4.1
		c0,0.2-0.2,0.4-0.4,0.4c-0.2,0-0.4-0.2-0.4-0.4l0-4.7c0-0.1,0.1-0.2,0.2-0.3c0.1-0.1,0.2-0.1,0.3,0l11.5,4.4
		c0.2,0.1,3.5,2.1,3.3,12.6C23.4,19.4,23.2,19.6,23,19.6z"/>
</g>
</svg>
