<?xml version="1.0" encoding="utf-8"?>
<!-- Generator: Adobe Illustrator 27.0.1, SVG Export Plug-In . SVG Version: 6.00 Build 0)  -->
<svg version="1.1" id="Layer_1" xmlns="http://www.w3.org/2000/svg" xmlns:xlink="http://www.w3.org/1999/xlink" x="0px" y="0px"
	 viewBox="0 0 24 24" style="enable-background:new 0 0 24 24;" xml:space="preserve">
<style type="text/css">
	.st0{fill:#AB9FC3;}
</style>
<path class="st0" d="M15.5,11.5h-3v-5C12.5,6.2,12.3,6,12,6s-0.5,0.2-0.5,0.5V12c0,0,0,0,0,0c0,0.3,0.2,0.5,0.5,0.5h3.5
	c0.3,0,0.5-0.2,0.5-0.5S15.8,11.5,15.5,11.5z M12,2C6.5,2,2,6.5,2,12s4.5,10,10,10c5.5,0,10-4.5,10-10C22,6.5,17.5,2,12,2z M12,21
	c-5,0-9-4-9-9s4-9,9-9c5,0,9,4,9,9C21,17,17,21,12,21z"/>
</svg>
