<?xml version="1.0" encoding="utf-8"?>
<!-- Generator: Adobe Illustrator 27.0.1, SVG Export Plug-In . SVG Version: 6.00 Build 0)  -->
<svg version="1.1" id="Layer_1" xmlns="http://www.w3.org/2000/svg" xmlns:xlink="http://www.w3.org/1999/xlink" x="0px" y="0px"
	 viewBox="0 0 24 24" style="enable-background:new 0 0 24 24;" xml:space="preserve">
<style type="text/css">
	.st0{fill:#AB9FC3;}
</style>
<path class="st0" d="M8.5,19.4c-1.1-0.4-2.1-1.1-3-1.9c-1.9-1.9-2.8-4.7-2.4-7.3C4.1,10,5,10,6,10.2c0.3,0,0.5-0.1,0.6-0.4
	c0.1-0.3-0.1-0.5-0.4-0.6C5,8.9,3.8,8.9,2.6,9.2c-0.2,0-0.4,0.2-0.4,0.4c-0.6,3.1,0.4,6.3,2.6,8.6c0.9,0.9,2.1,1.7,3.3,2.1
	c0.1,0,0.1,0,0.2,0v0c0.2,0,0.4-0.1,0.5-0.3C8.9,19.8,8.7,19.5,8.5,19.4z M12.3,4.1c-0.2-0.1-0.4-0.1-0.6,0c-1,0.7-1.9,1.6-2.6,2.6
	C6.2,11.1,7.3,17,11.7,19.9C11.8,20,11.9,20,12,20c0.1,0,0.2,0,0.3-0.1c1-0.7,1.9-1.6,2.6-2.6C17.8,12.9,16.7,7,12.3,4.1z M12,18.9
	c-0.7-0.5-1.3-1.1-1.9-1.9C7.4,13.2,8.2,7.9,12,5.1c0.7,0.5,1.3,1.1,1.9,1.9C16.6,10.8,15.8,16.1,12,18.9z M21.8,9.6
	c0-0.2-0.2-0.4-0.4-0.4c-1.2-0.2-2.4-0.2-3.6,0c-0.3,0.1-0.4,0.3-0.4,0.6c0,0.3,0.3,0.5,0.6,0.4c1-0.2,1.9-0.2,2.9-0.1
	c0.4,2.7-0.5,5.4-2.4,7.3c-0.8,0.8-1.9,1.5-3,1.9c-0.2,0.1-0.3,0.3-0.3,0.5c0,0.3,0.2,0.5,0.5,0.5c0.1,0,0.1,0,0.2,0
	c1.3-0.5,2.4-1.2,3.3-2.1C21.5,15.9,22.4,12.7,21.8,9.6z"/>
</svg>
