<?xml version="1.0" encoding="utf-8"?>
<!-- Generator: Adobe Illustrator 27.0.1, SVG Export Plug-In . SVG Version: 6.00 Build 0)  -->
<svg version="1.1" id="_x3C_Layer_x3E_" xmlns="http://www.w3.org/2000/svg" xmlns:xlink="http://www.w3.org/1999/xlink" x="0px"
	 y="0px" viewBox="0 0 1456.7 1524.1" style="enable-background:new 0 0 1456.7 1524.1;" xml:space="preserve">
<style type="text/css">
	.st0{fill:none;stroke:#AB9FC3;stroke-width:10;stroke-linecap:round;stroke-linejoin:round;stroke-miterlimit:10;}
</style>
<g id="Paperless_statements">
	<g>
		<g>
			<path class="st0" d="M1365.3,548.5v84.1c0,17-13.8,30.8-30.8,30.8h-4.5c-17,0-30.8-13.8-30.8-30.8v-84.1
				c0-17,13.8-30.8,30.8-30.8h4.5C1351.5,517.7,1365.3,531.5,1365.3,548.5z"/>
			<line class="st0" x1="197.6" y1="965.4" x2="197.6" y2="230.6"/>
			<path class="st0" d="M292.4,965.4l-188,0.6c-29.7,0-54-24.3-54-54V284c0-29.7,24.3-54,54-54h143.6"/>
			<path class="st0" d="M1197.4,230.6l165.7-0.6c29.7,0,54,24.3,54,54v627.9c0,29.7-24.3,54-54,54H1158"/>
			<line class="st0" x1="1239.8" y1="965.9" x2="1239.8" y2="230"/>
			<path class="st0" d="M130,686.1c0-54.9,0-109.8,0-164.7"/>
		</g>
		<g>
			<g>
				<g>
					<g>
						<path class="st0" d="M920.6,232.6c38.6-75,108.2-123.5,185-138.3c5.1-1,10.3,1.7,12.5,6.4c32.6,71.1,33.5,155.9-5.1,230.9
							c-38.6,75-108.2,123.5-185,138.3c-5.1,1-10.3-1.7-12.5-6.4C882.8,392.4,882,307.5,920.6,232.6z"/>
						<line class="st0" x1="926.1" y1="463.9" x2="1029.3" y2="257"/>
					</g>
				</g>
				<g>
					<g>
						<path class="st0" d="M920.3,469.6c-58.4-21.6-106.6-68.9-127-132.8c-20.5-63.9-8.6-130.3,26.3-181.9c2.3-3.4,6.8-4.8,10.6-3.4
							c37.6,13.9,71,38.5,95.4,71.3"/>
					</g>
				</g>
			</g>
			<g>
				<g>
					<path class="st0" d="M797.9,196.1c-25.3-51.4-71.5-92.2-130.9-108.8"/>
					<path class="st0" d="M425.6,384.6c25.7,49.3,71,88.3,128.7,104.5l5.2,1.4c43,11.9,94.6,1.8,94.6,1.8
						c66.7-14.3,124.3-61,150.5-127.3"/>
					<path class="st0" d="M567.1,84.1c-55.7,11.9-105,46.4-135,96.1"/>
					<path class="st0" d="M558.3,127.4l6.6-18l9.4-25.8c0.5-1.2,0.1-2.6-0.9-3.5l-20.5-18.3L538.7,49"/>
				</g>
				<path class="st0" d="M332.7,226.6c52.4,0,104.8,0,157.2,0"/>
				<path class="st0" d="M292.4,280c60.9,0,121.8,0,182.7,0"/>
				<path class="st0" d="M262.5,336c60.9,0,121.8,0,182.7,0"/>
				<polyline class="st0" points="671.5,304.8 617.4,303.7 620.1,180.2 				"/>
			</g>
		</g>
	</g>
	<g>
		<g>
			<g id="Preparing_6_">
				<g>
					<g>
						<g>
							<g>
								<path class="st0" d="M422.1,1421H1077h51.7h0c28.5,0,51.7-23.3,51.7-51.7V1344c0-6.2-5-11.2-11.2-11.2H484.4
									c-5.9,0-10.6,4.7-10.6,10.6v25.8C473.8,1397.7,450.5,1421,422.1,1421L422.1,1421c-28.5,0-51.7-23.3-51.7-51.7v-36.4l0-685.8
									"/>
							</g>
						</g>
					</g>
				</g>
			</g>
			<g id="Preparing_5_">
				<g>
					<g>
						<g>
							<g>
								<path class="st0" d="M1077,1332.8V966.4V660.9v-30.1v-20.9c0-18.3-14.9-33.2-33.2-33.2H403.5c-18.3,0-33.2,14.9-33.2,33.2
									v50.9"/>
							</g>
						</g>
					</g>
				</g>
			</g>
		</g>
		<g>
			<polyline class="st0" points="529.1,767.2 548.8,786.1 595.1,743.5 			"/>
			<path class="st0" d="M935.7,765.6c-93.2,0-186.5,0-279.7,0"/>
			<polyline class="st0" points="529.1,888.4 548.8,907.2 595.1,864.7 			"/>
			<path class="st0" d="M935.7,886.7c-93.2,0-186.5,0-279.7,0"/>
			<polyline class="st0" points="529.1,998.5 548.8,1017.4 595.1,974.9 			"/>
			<path class="st0" d="M935.7,996.9c-93.2,0-186.5,0-279.7,0"/>
			<polyline class="st0" points="529.1,1112.2 548.8,1131.1 595.1,1088.5 			"/>
			<path class="st0" d="M935.7,1110.5c-93.2,0-186.5,0-279.7,0"/>
		</g>
	</g>
</g>
</svg>
